<svg width="32" height="28" viewBox="0 0 32 28" fill="none" xmlns="http://www.w3.org/2000/svg">
<path d="M0 28V24.8889C1.01333 24.8889 1.77333 24.6296 2.28 24.1111C2.78667 23.5926 3.78667 23.3333 5.28 23.3333C6.77333 23.3333 7.8 23.5926 8.36 24.1111C8.92 24.6296 9.68 24.8889 10.64 24.8889C11.6 24.8889 12.36 24.6296 12.92 24.1111C13.48 23.5926 14.5067 23.3333 16 23.3333C17.4933 23.3333 18.52 23.5926 19.08 24.1111C19.64 24.6296 20.4 24.8889 21.36 24.8889C22.32 24.8889 23.08 24.6296 23.64 24.1111C24.2 23.5926 25.2267 23.3333 26.72 23.3333C28.2133 23.3333 29.2133 23.5926 29.72 24.1111C30.2267 24.6296 30.9867 24.8889 32 24.8889V28C30.4267 28 29.3936 27.7407 28.9008 27.2222C28.408 26.7037 27.6811 26.4444 26.72 26.4444C25.76 26.4444 25 26.7037 24.44 27.2222C23.88 27.7407 22.8533 28 21.36 28C19.8667 28 18.84 27.7407 18.28 27.2222C17.72 26.7037 16.96 26.4444 16 26.4444C15.04 26.4444 14.28 26.7037 13.72 27.2222C13.16 27.7407 12.1333 28 10.64 28C9.14667 28 8.12 27.7407 7.56 27.2222C7 26.7037 6.24 26.4444 5.28 26.4444C4.32 26.4444 3.59307 26.7037 3.0992 27.2222C2.60533 27.7407 1.57227 28 0 28ZM0 21V17.8889C1.01333 17.8889 1.77333 17.6296 2.28 17.1111C2.78667 16.5926 3.78667 16.3333 5.28 16.3333C6.77333 16.3333 7.80693 16.5926 8.3808 17.1111C8.95467 17.6296 9.70773 17.8889 10.64 17.8889C11.6 17.8889 12.36 17.6296 12.92 17.1111C13.48 16.5926 14.5067 16.3333 16 16.3333C17.4933 16.3333 18.52 16.5926 19.08 17.1111C19.64 17.6296 20.4 17.8889 21.36 17.8889C22.32 17.8889 23.08 17.6296 23.64 17.1111C24.2 16.5926 25.2267 16.3333 26.72 16.3333C28.2133 16.3333 29.2133 16.5926 29.72 17.1111C30.2267 17.6296 30.9867 17.8889 32 17.8889V21C30.4267 21 29.3936 20.7407 28.9008 20.2222C28.408 19.7037 27.6811 19.4444 26.72 19.4444C25.76 19.4444 25.0197 19.7037 24.4992 20.2222C23.9787 20.7407 22.9323 21 21.36 21C19.84 21 18.8069 20.7407 18.2608 20.2222C17.7147 19.7037 16.9611 19.4444 16 19.4444C14.9867 19.4444 14.2331 19.7037 13.7392 20.2222C13.2453 20.7407 12.2123 21 10.64 21C9.06667 21 8.01973 20.7407 7.4992 20.2222C6.97867 19.7037 6.23893 19.4444 5.28 19.4444C4.32 19.4444 3.5936 19.7037 3.1008 20.2222C2.608 20.7407 1.5744 21 0 21ZM7.84 13.0667L13.16 7.89445L11.56 6.33889C10.68 5.48333 9.74667 4.86111 8.76 4.47222C7.77333 4.08333 6.56 3.88889 5.12 3.88889V2.10495e-06C7.12 2.10495e-06 8.77333 0.21415 10.08 0.642447C11.3867 1.07074 12.6667 1.89363 13.92 3.11111L24.16 13.0667C23.7067 13.3519 23.2667 13.579 22.84 13.748C22.4133 13.917 21.92 14.001 21.36 14C20.4 14 19.64 13.7407 19.08 13.2222C18.52 12.7037 17.4933 12.4444 16 12.4444C14.5067 12.4444 13.48 12.7037 12.92 13.2222C12.36 13.7407 11.6 14 10.64 14C10.08 14 9.58667 13.9155 9.16 13.7464C8.73333 13.5774 8.29333 13.3508 7.84 13.0667ZM23.52 2.10495e-06C24.64 2.10495e-06 25.5867 0.38215 26.36 1.14645C27.1333 1.91074 27.52 2.82489 27.52 3.88889C27.52 4.97778 27.1333 5.89815 26.36 6.65C25.5867 7.40185 24.64 7.77778 23.52 7.77778C22.4 7.77778 21.4533 7.40185 20.68 6.65C19.9067 5.89815 19.52 4.97778 19.52 3.88889C19.52 2.82593 19.9067 1.91178 20.68 1.14645C21.4533 0.381113 22.4 -0.00103493 23.52 2.10495e-06Z" fill="black"/>
</svg>
