<svg width="18" height="18" viewBox="0 0 18 18" fill="none" xmlns="http://www.w3.org/2000/svg">
<mask id="mask0_0_1" style="mask-type:alpha" maskUnits="userSpaceOnUse" x="0" y="9" width="9" height="9">
<rect y="9" width="9" height="9" fill="#D9D9D9"/>
</mask>
<g mask="url(#mask0_0_1)">
<path d="M18 9C18 4.02944 13.9706 0 9 0C4.02944 0 0 4.02944 0 9C0 13.9706 4.02944 18 9 18C13.9706 18 18 13.9706 18 9Z" fill="#FFC0C0"/>
</g>
<mask id="mask1_0_1" style="mask-type:alpha" maskUnits="userSpaceOnUse" x="9" y="9" width="9" height="9">
<rect x="9" y="9" width="9" height="9" fill="#FFC0C0"/>
</mask>
<g mask="url(#mask1_0_1)">
<path d="M18 9C18 4.02944 13.9706 0 9 0C4.02944 0 0 4.02944 0 9C0 13.9706 4.02944 18 9 18C13.9706 18 18 13.9706 18 9Z" fill="#C0C7FF"/>
</g>
<mask id="mask2_0_1" style="mask-type:alpha" maskUnits="userSpaceOnUse" x="9" y="0" width="9" height="9">
<rect x="9" width="9" height="9" fill="#D9D9D9"/>
</mask>
<g mask="url(#mask2_0_1)">
<path d="M18 9C18 4.02944 13.9706 0 9 0C4.02944 0 0 4.02944 0 9C0 13.9706 4.02944 18 9 18C13.9706 18 18 13.9706 18 9Z" fill="#FFE7B6"/>
</g>
<mask id="mask3_0_1" style="mask-type:alpha" maskUnits="userSpaceOnUse" x="0" y="0" width="9" height="9">
<rect width="9" height="9" fill="#D9D9D9"/>
</mask>
<g mask="url(#mask3_0_1)">
<path d="M18 9C18 4.02944 13.9706 0 9 0V0C4.02944 0 0 4.02944 0 9V9C0 13.9706 4.02944 18 9 18V18C13.9706 18 18 13.9706 18 9V9Z" fill="#B4FFEE"/>
</g>
</svg>
