<svg width="18" height="18" viewBox="0 0 18 18" fill="none" xmlns="http://www.w3.org/2000/svg">
<path d="M14.8924 12.2901V5.70989C15.258 5.61622 15.5922 5.42749 15.8612 5.16285C16.1302 4.89822 16.3244 4.56712 16.4241 4.20317C16.5237 3.83921 16.5253 3.45536 16.4286 3.0906C16.332 2.72584 16.1405 2.39316 15.8737 2.12633C15.6068 1.8595 15.2742 1.66803 14.9094 1.57136C14.5446 1.47469 14.1608 1.47626 13.7968 1.57592C13.4329 1.67558 13.1018 1.86978 12.8371 2.13879C12.5725 2.4078 12.3838 2.74204 12.2901 3.10759H5.70989C5.61622 2.74204 5.42749 2.4078 5.16285 2.13879C4.89822 1.86978 4.56712 1.67558 4.20317 1.57592C3.83921 1.47626 3.45536 1.47469 3.0906 1.57136C2.72584 1.66803 2.39316 1.8595 2.12633 2.12633C1.8595 2.39316 1.66803 2.72584 1.57136 3.0906C1.47469 3.45536 1.47626 3.83921 1.57592 4.20317C1.67558 4.56712 1.86978 4.89822 2.13879 5.16285C2.4078 5.42749 2.74204 5.61622 3.10759 5.70989V12.2901C2.74204 12.3838 2.4078 12.5725 2.13879 12.8371C1.86978 13.1018 1.67558 13.4329 1.57592 13.7968C1.47626 14.1608 1.47469 14.5446 1.57136 14.9094C1.66803 15.2742 1.8595 15.6068 2.12633 15.8737C2.39316 16.1405 2.72584 16.332 3.0906 16.4286C3.45536 16.5253 3.83921 16.5237 4.20317 16.4241C4.56712 16.3244 4.89822 16.1302 5.16285 15.8612C5.42749 15.5922 5.61622 15.258 5.70989 14.8924H12.2901C12.3838 15.258 12.5725 15.5922 12.8371 15.8612C13.1018 16.1302 13.4329 16.3244 13.7968 16.4241C14.1608 16.5237 14.5446 16.5253 14.9094 16.4286C15.2742 16.332 15.6068 16.1405 15.8737 15.8737C16.1405 15.6068 16.332 15.2742 16.4286 14.9094C16.5253 14.5446 16.5237 14.1608 16.4241 13.7968C16.3244 13.4329 16.1302 13.1018 15.8612 12.8371C15.5922 12.5725 15.258 12.3838 14.8924 12.2901ZM14.3567 2.57191C14.5686 2.57191 14.7758 2.63474 14.952 2.75247C15.1281 2.87019 15.2655 3.03751 15.3465 3.23327C15.4276 3.42904 15.4488 3.64445 15.4075 3.85227C15.3662 4.06009 15.2641 4.25099 15.1143 4.40082C14.9645 4.55065 14.7736 4.65268 14.5658 4.69402C14.3579 4.73536 14.1425 4.71414 13.9468 4.63306C13.751 4.55197 13.5837 4.41465 13.4659 4.23847C13.3482 4.06229 13.2854 3.85515 13.2854 3.64326C13.2857 3.35921 13.3986 3.08687 13.5995 2.88602C13.8004 2.68516 14.0727 2.57219 14.3567 2.57191ZM2.57191 3.64326C2.57191 3.43137 2.63474 3.22423 2.75247 3.04805C2.87019 2.87187 3.03751 2.73455 3.23327 2.65346C3.42904 2.57237 3.64445 2.55116 3.85227 2.5925C4.06009 2.63383 4.25099 2.73587 4.40082 2.8857C4.55065 3.03553 4.65268 3.22643 4.69402 3.43425C4.73536 3.64207 4.71414 3.85748 4.63306 4.05325C4.55197 4.24901 4.41465 4.41633 4.23847 4.53405C4.06229 4.65177 3.85515 4.71461 3.64326 4.71461C3.35921 4.71432 3.08687 4.60136 2.88602 4.4005C2.68516 4.19965 2.57219 3.92731 2.57191 3.64326ZM3.64326 15.4281C3.43137 15.4281 3.22423 15.3653 3.04805 15.2475C2.87187 15.1298 2.73455 14.9625 2.65346 14.7667C2.57237 14.571 2.55116 14.3556 2.5925 14.1477C2.63383 13.9399 2.73587 13.749 2.8857 13.5992C3.03553 13.4494 3.22643 13.3473 3.43425 13.306C3.64207 13.2646 3.85748 13.2859 4.05325 13.3669C4.24901 13.448 4.41633 13.5853 4.53405 13.7615C4.65177 13.9377 4.71461 14.1448 4.71461 14.3567C4.71432 14.6408 4.60136 14.9131 4.4005 15.114C4.19965 15.3148 3.92731 15.4278 3.64326 15.4281ZM12.2901 13.8211H5.70989C5.61394 13.4528 5.42148 13.1167 5.15237 12.8476C4.88325 12.5785 4.54722 12.3861 4.17893 12.2901V5.70989C4.5472 5.61388 4.8832 5.42141 5.15231 5.15231C5.42141 4.8832 5.61388 4.5472 5.70989 4.17893H12.2901C12.3861 4.54722 12.5785 4.88325 12.8476 5.15237C13.1167 5.42148 13.4528 5.61394 13.8211 5.70989V12.2901C13.4528 12.386 13.1167 12.5785 12.8476 12.8476C12.5785 13.1167 12.386 13.4528 12.2901 13.8211ZM14.3567 15.4281C14.1448 15.4281 13.9377 15.3653 13.7615 15.2475C13.5853 15.1298 13.448 14.9625 13.3669 14.7667C13.2859 14.571 13.2646 14.3556 13.306 14.1477C13.3473 13.9399 13.4494 13.749 13.5992 13.5992C13.749 13.4494 13.9399 13.3473 14.1477 13.306C14.3556 13.2646 14.571 13.2859 14.7667 13.3669C14.9625 13.448 15.1298 13.5853 15.2475 13.7615C15.3653 13.9377 15.4281 14.1448 15.4281 14.3567C15.4277 14.6407 15.3147 14.913 15.1138 15.1138C14.913 15.3147 14.6407 15.4277 14.3567 15.4281Z" fill="white"/>
</svg>
