<svg width="27" height="36" viewBox="0 0 27 36" fill="none" xmlns="http://www.w3.org/2000/svg">
<path d="M5.508 0C5.184 2.106 5.706 3.888 7.11 5.346C8.01 6.246 8.298 7.452 7.956 9H9.738C9.954 8.01 9.99 7.2 9.81 6.39C9.648 5.634 9.09 4.734 8.1 3.654C7.29 2.646 7.002 1.44 7.29 0H5.508ZM9.99 0C9.648 2.106 10.188 3.888 11.592 5.346C12.492 6.246 12.762 7.452 12.438 9H14.202C14.4 8.01 14.454 7.2 14.292 6.39C14.112 5.634 13.554 4.734 12.6 3.654C11.754 2.646 11.484 1.44 11.754 0H9.99ZM14.544 0C14.202 2.106 14.742 3.888 16.146 5.346C17.046 6.246 17.298 7.452 16.902 9H18.756C18.99 8.01 19.008 7.2 18.846 6.39C18.684 5.634 18.108 4.734 17.154 3.654C16.308 2.646 16.038 1.44 16.308 0H14.544ZM0 10.8C0 13.356 0.702 15.66 2.052 17.712C3.36737 19.7345 5.24396 21.3297 7.452 22.302L0.288 33.192C0.108 33.408 0 33.75 0 34.2C0 34.938 0.288 35.442 0.792 35.712C1.008 35.892 1.35 36 1.8 36C2.538 36 3.042 35.712 3.312 35.208L5.094 32.346H16.56C16.938 33.39 17.622 34.29 18.504 34.956C19.404 35.64 20.448 36 21.6 36C23.094 36 24.354 35.442 25.434 34.362C26.496 33.3 27 32.04 27 30.6C27 29.106 26.496 27.846 25.434 26.784C24.354 25.704 23.094 25.2 21.6 25.2C20.448 25.2 19.404 25.506 18.504 26.19C17.604 26.856 16.956 27.738 16.56 28.8H7.452L10.998 23.31C11.286 23.4 11.808 23.4 12.6 23.4C13.392 23.4 13.914 23.4 14.202 23.31L15.984 26.1C16.722 25.128 17.712 24.372 18.846 23.904L17.838 22.302C19.854 21.402 21.6 19.8 23.022 17.586C24.462 15.3 25.2 13.086 25.2 10.8H0ZM21.6 28.8C22.14 28.8 22.554 28.962 22.896 29.304C23.238 29.646 23.4 30.096 23.4 30.6C23.4 31.086 23.238 31.5 22.896 31.878C22.572 32.238 22.104 32.4 21.6 32.4C21.132 32.4 20.7 32.238 20.322 31.878C20.155 31.7099 20.0229 31.5105 19.9333 31.2911C19.8437 31.0718 19.7984 30.8369 19.8 30.6C19.8 30.06 19.962 29.646 20.322 29.304C20.7 28.962 21.114 28.8 21.6 28.8Z" fill="black"/>
</svg>
