<svg width="48" height="48" viewBox="0 0 48 48" fill="none" xmlns="http://www.w3.org/2000/svg">
<path d="M23.5 22.5416H23.5104V22.552H23.5V22.5416Z" stroke="white" stroke-width="3.59375" stroke-linejoin="round"/>
<path d="M23.4998 33.0834L28.7707 27.8125C29.8131 26.7701 30.523 25.4419 30.8105 23.996C31.0981 22.5501 30.9505 21.0514 30.3863 19.6894C29.8221 18.3274 28.8667 17.1632 27.641 16.3442C26.4152 15.5252 24.974 15.088 23.4998 15.088C22.0256 15.088 20.5845 15.5252 19.3587 16.3442C18.1329 17.1632 17.1775 18.3274 16.6133 19.6894C16.0492 21.0514 15.9015 22.5501 16.1891 23.996C16.4767 25.4419 17.1866 26.7701 18.229 27.8125L23.4998 33.0834Z" stroke="white" stroke-width="2.39583" stroke-linejoin="round"/>
</svg>
