<svg width="48" height="48" viewBox="0 0 48 48" fill="none" xmlns="http://www.w3.org/2000/svg">
<path d="M22.8301 28.6396V30H17.5459V28.6396H22.8301ZM18.0312 20.0469V30H16.3154V20.0469H18.0312ZM22.1396 24.2031V25.543H17.5459V24.2031H22.1396ZM22.7959 20.0469V21.4141H17.5459V20.0469H22.7959Z" fill="white"/>
<path d="M29.4678 27.4365C29.4678 27.2314 29.4359 27.0492 29.3721 26.8896C29.3128 26.7301 29.2057 26.5843 29.0508 26.4521C28.8958 26.32 28.6771 26.1924 28.3945 26.0693C28.1165 25.9417 27.7611 25.8118 27.3281 25.6797C26.8542 25.5339 26.4167 25.3721 26.0156 25.1943C25.6191 25.012 25.2728 24.8024 24.9766 24.5654C24.6803 24.3239 24.4502 24.0482 24.2861 23.7383C24.1221 23.4238 24.04 23.0615 24.04 22.6514C24.04 22.2458 24.1243 21.8766 24.293 21.5439C24.4661 21.2113 24.71 20.9242 25.0244 20.6826C25.3434 20.4365 25.7194 20.2474 26.1523 20.1152C26.5853 19.9785 27.0638 19.9102 27.5879 19.9102C28.3262 19.9102 28.9619 20.0469 29.4951 20.3203C30.0329 20.5938 30.4453 20.9606 30.7324 21.4209C31.0241 21.8812 31.1699 22.3893 31.1699 22.9453H29.4678C29.4678 22.6172 29.3971 22.3278 29.2559 22.0771C29.1191 21.8219 28.9095 21.6214 28.627 21.4756C28.349 21.3298 27.9958 21.2568 27.5674 21.2568C27.1618 21.2568 26.8245 21.3184 26.5557 21.4414C26.2868 21.5645 26.0863 21.7308 25.9541 21.9404C25.8219 22.1501 25.7559 22.387 25.7559 22.6514C25.7559 22.8382 25.7992 23.0091 25.8857 23.1641C25.9723 23.3145 26.1045 23.4557 26.2822 23.5879C26.46 23.7155 26.6833 23.8363 26.9521 23.9502C27.221 24.0641 27.5378 24.1735 27.9023 24.2783C28.4538 24.4424 28.9346 24.6247 29.3447 24.8252C29.7549 25.0212 30.0967 25.2445 30.3701 25.4951C30.6436 25.7458 30.8486 26.0306 30.9854 26.3496C31.1221 26.6641 31.1904 27.0218 31.1904 27.4229C31.1904 27.8421 31.1061 28.2204 30.9375 28.5576C30.7689 28.8903 30.5273 29.1751 30.2129 29.4121C29.903 29.6445 29.5293 29.8245 29.0918 29.9521C28.6589 30.0752 28.1758 30.1367 27.6426 30.1367C27.1641 30.1367 26.6924 30.0729 26.2275 29.9453C25.7673 29.8177 25.348 29.624 24.9697 29.3643C24.5915 29.0999 24.2907 28.7718 24.0674 28.3799C23.8441 27.9834 23.7324 27.5208 23.7324 26.9922H25.4482C25.4482 27.3158 25.5029 27.5915 25.6123 27.8193C25.7262 28.0472 25.8835 28.234 26.084 28.3799C26.2845 28.5212 26.5169 28.626 26.7812 28.6943C27.0501 28.7627 27.3372 28.7969 27.6426 28.7969C28.0436 28.7969 28.3786 28.7399 28.6475 28.626C28.9209 28.512 29.126 28.3525 29.2627 28.1475C29.3994 27.9424 29.4678 27.7054 29.4678 27.4365Z" fill="white"/>
</svg>
