<svg width="48" height="48" viewBox="0 0 48 48" fill="none" xmlns="http://www.w3.org/2000/svg">
<circle cx="24" cy="24" r="24" fill="#ED6B6A"/>
<path d="M25.732 34.77L26.274 33.854L24.984 33.09L24.441 34.006L25.732 34.77ZM21.726 33.854L22.268 34.77L23.558 34.006L23.017 33.09L21.726 33.854ZM24.441 34.006C24.3943 34.0808 24.3293 34.1425 24.2521 34.1853C24.175 34.228 24.0882 34.2505 24 34.2505C23.9118 34.2505 23.825 34.228 23.7479 34.1853C23.6707 34.1425 23.6057 34.0808 23.559 34.006L22.268 34.77C23.041 36.077 24.958 36.077 25.732 34.77L24.442 34.006H24.441ZM22.5 15.75H25.5V14.25H22.5V15.75ZM33.25 23.5V24.5H34.75V23.5H33.25ZM14.75 24.5V23.5H13.25V24.5H14.75ZM13.25 24.5C13.25 25.655 13.25 26.558 13.3 27.287C13.35 28.022 13.453 28.634 13.688 29.2L15.074 28.626C14.927 28.274 14.841 27.844 14.796 27.185C14.75 26.519 14.75 25.675 14.75 24.5H13.25ZM19.803 31.242C18.547 31.22 17.889 31.14 17.373 30.926L16.8 32.312C17.605 32.646 18.521 32.721 19.777 32.743L19.803 31.242ZM13.688 29.2C13.977 29.8977 14.4005 30.5316 14.9345 31.0655C15.4684 31.5995 16.1023 32.023 16.8 32.312L17.373 30.926C16.3317 30.4947 15.5053 29.6673 15.074 28.626L13.688 29.2ZM33.25 24.5C33.25 25.675 33.25 26.519 33.204 27.185C33.159 27.844 33.073 28.274 32.927 28.626L34.312 29.2C34.547 28.634 34.65 28.022 34.701 27.287C34.751 26.558 34.75 25.655 34.75 24.5H33.25ZM28.223 32.741C29.479 32.72 30.395 32.646 31.2 32.312L30.626 30.926C30.111 31.14 29.453 31.22 28.198 31.242L28.223 32.742V32.741ZM32.927 28.626C32.4957 29.6673 31.6683 30.4947 30.627 30.926L31.2 32.312C31.8977 32.023 32.5316 31.5995 33.0655 31.0655C33.5995 30.5316 34.023 29.8977 34.312 29.2L32.927 28.626ZM25.5 15.75C27.151 15.75 28.337 15.75 29.262 15.839C30.176 15.926 30.757 16.092 31.221 16.376L32.004 15.097C31.265 14.645 30.427 14.443 29.404 14.345C28.392 14.249 27.122 14.25 25.5 14.25V15.75ZM34.75 23.5C34.75 21.878 34.75 20.609 34.654 19.596C34.557 18.573 34.355 17.734 33.903 16.996L32.623 17.779C32.908 18.243 33.074 18.824 33.161 19.739C33.249 20.663 33.25 21.849 33.25 23.5H34.75ZM31.22 16.376C31.7922 16.7263 32.2733 17.2071 32.624 17.779L33.903 16.996C33.4288 16.222 32.778 15.5712 32.004 15.097L31.221 16.377L31.22 16.376ZM22.5 14.25C20.878 14.25 19.609 14.25 18.596 14.345C17.573 14.443 16.734 14.645 15.996 15.097L16.779 16.377C17.243 16.092 17.824 15.926 18.739 15.839C19.663 15.751 20.849 15.75 22.5 15.75V14.25ZM14.75 23.5C14.75 21.849 14.75 20.663 14.839 19.738C14.926 18.824 15.092 18.243 15.376 17.779L14.097 16.997C13.645 17.735 13.443 18.573 13.345 19.596C13.25 20.61 13.25 21.878 13.25 23.5H14.75ZM15.996 15.097C15.222 15.5712 14.5712 16.223 14.097 16.997L15.377 17.779C15.7271 17.2073 16.2076 16.7265 16.779 16.376L15.996 15.097ZM23.016 33.09C22.814 32.747 22.636 32.444 22.462 32.206C22.283 31.945 22.0505 31.7252 21.78 31.561L21.026 32.858C21.073 32.886 21.138 32.936 21.25 33.09C21.371 33.256 21.508 33.486 21.726 33.854L23.016 33.09ZM19.777 32.741C20.217 32.749 20.494 32.755 20.706 32.778C20.904 32.8 20.981 32.832 21.026 32.858L21.78 31.561C21.5 31.4059 21.1901 31.3125 20.871 31.287C20.573 31.254 20.215 31.249 19.803 31.242L19.777 32.743V32.741ZM26.274 33.854C26.492 33.487 26.629 33.256 26.75 33.09C26.862 32.936 26.927 32.886 26.974 32.858L26.22 31.561C25.93 31.731 25.72 31.956 25.538 32.206C25.365 32.444 25.186 32.746 24.983 33.09L26.274 33.854ZM28.198 31.242C27.786 31.249 27.427 31.254 27.129 31.287C26.818 31.322 26.513 31.391 26.22 31.561L26.974 32.858C27.019 32.832 27.096 32.8 27.294 32.778C27.506 32.755 27.784 32.748 28.224 32.741L28.198 31.241V31.242Z" fill="white"/>
<path d="M20 24H20.009M23.991 24H24M27.991 24H28" stroke="white" stroke-width="2" stroke-linecap="round" stroke-linejoin="round"/>
</svg>
