<svg width="28" height="30" viewBox="0 0 28 30" fill="none" xmlns="http://www.w3.org/2000/svg">
<path d="M21.2568 7.13738C21.0398 6.90332 20.7451 6.77178 20.4379 6.77178C20.1306 6.77178 19.836 6.90332 19.619 7.13738L13.9389 13.2374L8.25882 7.12488C8.0418 6.89082 7.74717 6.75928 7.43991 6.75928C7.13266 6.75928 6.83803 6.89082 6.62101 7.12488C6.168 7.61238 6.168 8.39988 6.62101 8.88738L12.3011 14.9999L6.62101 21.1124C6.168 21.5999 6.168 22.3874 6.62101 22.8749C7.07402 23.3624 7.80581 23.3624 8.25882 22.8749L13.9389 16.7624L19.619 22.8749C20.072 23.3624 20.8038 23.3624 21.2568 22.8749C21.7098 22.3874 21.7098 21.5999 21.2568 21.1124L15.5767 14.9999L21.2568 8.88738C21.6982 8.41238 21.6982 7.61238 21.2568 7.13738Z" fill="black"/>
</svg>
