<svg width="38" height="34" viewBox="0 0 38 34" fill="none" xmlns="http://www.w3.org/2000/svg">
<path d="M9.5 6.53846V1.30769C9.5 0.960871 9.64298 0.628254 9.8975 0.383014C10.152 0.137774 10.4972 0 10.8571 0C11.2171 0 11.5623 0.137774 11.8168 0.383014C12.0713 0.628254 12.2143 0.960871 12.2143 1.30769V6.53846C12.2143 6.88528 12.0713 7.2179 11.8168 7.46314C11.5623 7.70838 11.2171 7.84615 10.8571 7.84615C10.4972 7.84615 10.152 7.70838 9.8975 7.46314C9.64298 7.2179 9.5 6.88528 9.5 6.53846ZM16.2857 7.84615C16.6457 7.84615 16.9908 7.70838 17.2454 7.46314C17.4999 7.2179 17.6429 6.88528 17.6429 6.53846V1.30769C17.6429 0.960871 17.4999 0.628254 17.2454 0.383014C16.9908 0.137774 16.6457 0 16.2857 0C15.9258 0 15.5806 0.137774 15.3261 0.383014C15.0716 0.628254 14.9286 0.960871 14.9286 1.30769V6.53846C14.9286 6.88528 15.0716 7.2179 15.3261 7.46314C15.5806 7.70838 15.9258 7.84615 16.2857 7.84615ZM21.7143 7.84615C22.0742 7.84615 22.4194 7.70838 22.6739 7.46314C22.9284 7.2179 23.0714 6.88528 23.0714 6.53846V1.30769C23.0714 0.960871 22.9284 0.628254 22.6739 0.383014C22.4194 0.137774 22.0742 0 21.7143 0C21.3543 0 21.0092 0.137774 20.7546 0.383014C20.5001 0.628254 20.3571 0.960871 20.3571 1.30769V6.53846C20.3571 6.88528 20.5001 7.2179 20.7546 7.46314C21.0092 7.70838 21.3543 7.84615 21.7143 7.84615ZM38 17V18.3077C37.9995 19.971 37.3411 21.5716 36.1589 22.7836C34.9767 23.9956 33.3595 24.7279 31.6367 24.8314C30.711 27.3546 29.1348 29.6096 27.0563 31.3846H31.2143C31.5742 31.3846 31.9194 31.5224 32.1739 31.7676C32.4284 32.0129 32.5714 32.3455 32.5714 32.6923C32.5714 33.0391 32.4284 33.3717 32.1739 33.617C31.9194 33.8622 31.5742 34 31.2143 34H1.35714C0.997206 34 0.652012 33.8622 0.397498 33.617C0.142984 33.3717 0 33.0391 0 32.6923C0 32.3455 0.142984 32.0129 0.397498 31.7676C0.652012 31.5224 0.997206 31.3846 1.35714 31.3846H5.52018C3.78864 29.9106 2.40129 28.0994 1.44973 26.0706C0.498174 24.0419 0.00405592 21.8417 0 19.6154V11.7692C0 11.4224 0.142984 11.0898 0.397498 10.8446C0.652012 10.5993 0.997206 10.4615 1.35714 10.4615H31.2143C33.014 10.4615 34.7399 11.1504 36.0125 12.3766C37.2851 13.6028 38 15.2659 38 17ZM29.8571 13.0769H2.71429V19.6154C2.71952 22.0707 3.43963 24.4754 4.79275 26.5559C6.14587 28.6365 8.07769 30.3094 10.3686 31.3846H22.2029C24.4937 30.3094 26.4256 28.6365 27.7787 26.5559C29.1318 24.4754 29.8519 22.0707 29.8571 19.6154V13.0769ZM35.2857 17C35.2855 16.1889 35.0243 15.3979 34.5382 14.7357C34.0521 14.0736 33.365 13.5729 32.5714 13.3025V19.6154C32.5704 20.4366 32.5023 21.2564 32.3679 22.0673C33.2099 21.8276 33.949 21.332 34.4748 20.6545C35.0007 19.9769 35.2851 19.1537 35.2857 18.3077V17Z" fill="black"/>
</svg>
