<svg width="40" height="38" viewBox="0 0 40 38" fill="none" xmlns="http://www.w3.org/2000/svg">
<path d="M40 19C40 19.3599 39.8595 19.7051 39.6095 19.9596C39.3594 20.2142 39.0203 20.3571 38.6667 20.3571H35.8883C35.5707 22.2534 34.6049 23.9744 33.1615 25.2161C31.718 26.4578 29.8899 27.1402 28 27.1429H21.3333V31.2143H25.3333C26.7478 31.2143 28.1044 31.7862 29.1046 32.8043C30.1048 33.8223 30.6667 35.2031 30.6667 36.6429C30.6667 37.0028 30.5262 37.348 30.2761 37.6025C30.0261 37.857 29.687 38 29.3333 38C28.9797 38 28.6406 37.857 28.3905 37.6025C28.1405 37.348 28 37.0028 28 36.6429C28 35.923 27.719 35.2326 27.219 34.7236C26.7189 34.2145 26.0406 33.9286 25.3333 33.9286H21.3333V36.6429C21.3333 37.0028 21.1929 37.348 20.9428 37.6025C20.6928 37.857 20.3536 38 20 38C19.6464 38 19.3072 37.857 19.0572 37.6025C18.8071 37.348 18.6667 37.0028 18.6667 36.6429V33.9286H14.6667C13.9594 33.9286 13.2811 34.2145 12.781 34.7236C12.281 35.2326 12 35.923 12 36.6429C12 37.0028 11.8595 37.348 11.6095 37.6025C11.3594 37.857 11.0203 38 10.6667 38C10.313 38 9.97391 37.857 9.72386 37.6025C9.47381 37.348 9.33333 37.0028 9.33333 36.6429C9.33333 35.2031 9.89524 33.8223 10.8954 32.8043C11.8956 31.7862 13.2522 31.2143 14.6667 31.2143H18.6667V27.1429H12C10.1101 27.1402 8.28197 26.4578 6.83854 25.2161C5.3951 23.9744 4.42927 22.2534 4.11167 20.3571H1.33333C0.979711 20.3571 0.640573 20.2142 0.390524 19.9596C0.140476 19.7051 0 19.3599 0 19C0 18.6401 0.140476 18.2949 0.390524 18.0404C0.640573 17.7858 0.979711 17.6429 1.33333 17.6429H5.33333C5.68696 17.6429 6.02609 17.7858 6.27614 18.0404C6.52619 18.2949 6.66667 18.6401 6.66667 19C6.66667 20.4397 7.22857 21.8205 8.22876 22.8386C9.22896 23.8566 10.5855 24.4286 12 24.4286H28C29.4145 24.4286 30.771 23.8566 31.7712 22.8386C32.7714 21.8205 33.3333 20.4397 33.3333 19C33.3333 18.6401 33.4738 18.2949 33.7239 18.0404C33.9739 17.7858 34.313 17.6429 34.6667 17.6429H38.6667C39.0203 17.6429 39.3594 17.7858 39.6095 18.0404C39.8595 18.2949 40 18.6401 40 19ZM9.985 20.7779C9.73487 20.4842 9.54962 20.1392 9.44179 19.7664C9.33397 19.3935 9.30607 19.0014 9.36 18.6166L11.6467 2.33089C11.74 1.68515 12.0577 1.09487 12.5421 0.667193C13.0264 0.239516 13.6454 0.00279459 14.2867 0H25.7133C26.3546 0.00279459 26.9736 0.239516 27.4579 0.667193C27.9423 1.09487 28.26 1.68515 28.3533 2.33089L30.64 18.6166C30.694 19.0016 30.666 19.3938 30.5581 19.7668C30.4502 20.1398 30.2648 20.4849 30.0144 20.7786C29.7641 21.0723 29.4547 21.3079 29.1071 21.4693C28.7596 21.6308 28.382 21.7143 28 21.7143H12C11.6178 21.7143 11.2401 21.6307 10.8925 21.4691C10.5448 21.3075 10.2353 21.0718 9.985 20.7779ZM12 19H28L25.7133 2.71429H14.285L12 19Z" fill="black"/>
</svg>
