<svg width="16" height="16" viewBox="0 0 16 16" fill="none" xmlns="http://www.w3.org/2000/svg">
<path d="M15.5248 3.26896L8.3248 0.069003C8.22242 0.0235075 8.11163 0 7.9996 0C7.88757 0 7.77678 0.0235075 7.6744 0.069003L0.4744 3.26896C0.465552 3.27294 0.458171 3.27839 0.450635 3.28396C0.444544 3.28846 0.438352 3.29303 0.4312 3.29696C0.422772 3.30118 0.414117 3.30482 0.405492 3.30846C0.391193 3.31449 0.376974 3.32048 0.364 3.32896C0.354093 3.33572 0.345453 3.34349 0.336796 3.35127C0.330075 3.35731 0.323343 3.36337 0.316 3.36896C0.257522 3.41242 0.206231 3.46479 0.164 3.52416C0.15787 3.53274 0.151623 3.54097 0.145438 3.54912C0.135479 3.56224 0.125683 3.57514 0.1168 3.58896C0.0929893 3.63124 0.0726557 3.67538 0.0559999 3.72096C0.0526827 3.73091 0.0485163 3.74052 0.0443615 3.75011C0.0394985 3.76132 0.0346513 3.77251 0.0312 3.78416C0.0111084 3.85442 0.000613237 3.92708 0 4.00015V12.0001C0 12.3168 0.1856 12.6024 0.4752 12.7312L7.6752 15.9312C7.7792 15.9776 7.8896 16 8 16C8.11139 15.9971 8.22094 15.971 8.3216 15.9232L8.3248 15.9312L15.5248 12.7312C15.6663 12.6685 15.7866 12.566 15.8709 12.4362C15.9553 12.3064 16.0001 12.1549 16 12.0001V4.00015C16.0001 3.84535 15.9553 3.69384 15.8709 3.56403C15.7866 3.43423 15.6663 3.33172 15.5248 3.26896ZM8 1.67618L13.2304 4.00015L8 6.32412L6.9536 5.85933L2.7704 4.00015L8 1.67618ZM1.6 11.4809V5.23134L7.2 7.7201V13.9688L1.6 11.4809ZM8.8 13.9688V7.7201L14.4 5.23134V11.4809L8.8 13.9688Z" fill="#979797"/>
<path d="M15.5248 3.26896L8.3248 0.069003C8.22242 0.0235075 8.11163 0 7.9996 0C7.88757 0 7.77678 0.0235075 7.6744 0.069003L0.4744 3.26896C0.465552 3.27294 0.458171 3.27839 0.450635 3.28396C0.444544 3.28846 0.438352 3.29303 0.4312 3.29696C0.422772 3.30118 0.414117 3.30482 0.405492 3.30846C0.391193 3.31449 0.376974 3.32048 0.364 3.32896C0.354093 3.33572 0.345453 3.34349 0.336796 3.35127C0.330075 3.35731 0.323343 3.36337 0.316 3.36896C0.257522 3.41242 0.206231 3.46479 0.164 3.52416C0.15787 3.53274 0.151623 3.54097 0.145438 3.54912C0.135479 3.56224 0.125683 3.57514 0.1168 3.58896C0.0929893 3.63124 0.0726557 3.67538 0.0559999 3.72096C0.0526827 3.73091 0.0485163 3.74052 0.0443615 3.75011C0.0394985 3.76132 0.0346513 3.77251 0.0312 3.78416C0.0111084 3.85442 0.000613237 3.92708 0 4.00015V12.0001C0 12.3168 0.1856 12.6024 0.4752 12.7312L7.6752 15.9312C7.7792 15.9776 7.8896 16 8 16C8.11139 15.9971 8.22094 15.971 8.3216 15.9232L8.3248 15.9312L15.5248 12.7312C15.6663 12.6685 15.7866 12.566 15.8709 12.4362C15.9553 12.3064 16.0001 12.1549 16 12.0001V4.00015C16.0001 3.84535 15.9553 3.69384 15.8709 3.56403C15.7866 3.43423 15.6663 3.33172 15.5248 3.26896ZM8 1.67618L13.2304 4.00015L8 6.32412L6.9536 5.85933L2.7704 4.00015L8 1.67618ZM1.6 11.4809V5.23134L7.2 7.7201V13.9688L1.6 11.4809ZM8.8 13.9688V7.7201L14.4 5.23134V11.4809L8.8 13.9688Z" stroke="#E4E4E7"/>
</svg>
