<svg width="19" height="19" viewBox="0 0 19 19" fill="none" xmlns="http://www.w3.org/2000/svg">
<path fill-rule="evenodd" clip-rule="evenodd" d="M0.46308 0.483339C0.759679 0.186531 1.1619 0.0197931 1.58129 0.0197931C2.00068 0.0197931 2.4029 0.186531 2.6995 0.483339L9.48944 7.2801L16.2794 0.483339C16.4253 0.332125 16.5998 0.211512 16.7928 0.128537C16.9857 0.0455617 17.1933 0.00188652 17.4033 5.97777e-05C17.6133 -0.00176697 17.8215 0.0382909 18.0159 0.117897C18.2103 0.197502 18.3869 0.315061 18.5354 0.463714C18.6839 0.612367 18.8013 0.789137 18.8809 0.983709C18.9604 1.17828 19.0004 1.38676 18.9986 1.59698C18.9968 1.8072 18.9531 2.01495 18.8702 2.20811C18.7873 2.40126 18.6669 2.57596 18.5158 2.72201L11.7259 9.51878L18.5158 16.3155C18.8039 16.6141 18.9633 17.0141 18.9597 17.4292C18.9561 17.8443 18.7898 18.2414 18.4965 18.5349C18.2033 18.8285 17.8066 18.995 17.3919 18.9986C16.9772 19.0022 16.5777 18.8426 16.2794 18.5542L9.48944 11.7575L2.6995 18.5542C2.4012 18.8426 2.00168 19.0022 1.58698 18.9986C1.17228 18.995 0.775593 18.8285 0.482346 18.5349C0.189099 18.2414 0.0227605 17.8443 0.0191569 17.4292C0.0155533 17.0141 0.174973 16.6141 0.46308 16.3155L7.25301 9.51878L0.46308 2.72201C0.16657 2.42511 0 2.02249 0 1.60268C0 1.18286 0.16657 0.780237 0.46308 0.483339Z" fill="white"/>
</svg>
