<svg width="48" height="48" viewBox="0 0 48 48" fill="none" xmlns="http://www.w3.org/2000/svg">
<rect x="0.5" y="0.5" width="47" height="47" rx="23.5" fill="white" stroke="#DADADA"/>
<path fill-rule="evenodd" clip-rule="evenodd" d="M17.3585 17.3562C17.5881 17.1375 17.8995 17.0146 18.2242 17.0146C18.5489 17.0146 18.8603 17.1375 19.0899 17.3562L24.3465 22.3647L29.603 17.3562C29.716 17.2447 29.8511 17.1559 30.0005 17.0947C30.1499 17.0336 30.3106 17.0014 30.4731 17C30.6357 16.9987 30.797 17.0282 30.9474 17.0869C31.0979 17.1455 31.2346 17.2322 31.3496 17.3417C31.4646 17.4512 31.5555 17.5815 31.6171 17.7249C31.6786 17.8683 31.7096 18.0219 31.7082 18.1768C31.7068 18.3317 31.673 18.4848 31.6088 18.6271C31.5447 18.7695 31.4514 18.8982 31.3344 19.0058L26.0778 24.0143L31.3344 29.0228C31.5575 29.2429 31.6809 29.5376 31.6781 29.8435C31.6753 30.1494 31.5465 30.442 31.3195 30.6583C31.0925 30.8746 30.7854 30.9973 30.4643 31C30.1433 31.0026 29.834 30.885 29.603 30.6725L24.3465 25.664L19.0899 30.6725C18.8589 30.885 18.5496 31.0026 18.2286 31C17.9076 30.9973 17.6004 30.8746 17.3734 30.6583C17.1464 30.442 17.0176 30.1494 17.0148 29.8435C17.012 29.5376 17.1355 29.2429 17.3585 29.0228L22.6151 24.0143L17.3585 19.0058C17.129 18.7871 17 18.4904 17 18.181C17 17.8716 17.129 17.575 17.3585 17.3562Z" fill="#5B5B5B"/>
</svg>
