<svg width="42" height="44" viewBox="0 0 42 44" fill="none" xmlns="http://www.w3.org/2000/svg">
<path d="M21 43.5H18V37.569C17.9996 37.1758 17.8414 36.7989 17.5602 36.5209C17.279 36.2429 16.8977 36.0866 16.5 36.0862H13.5V43.5H10.5V33.1207H16.5C17.6931 33.1219 18.837 33.5909 19.6807 34.4249C20.5243 35.2588 20.9988 36.3896 21 37.569V43.5ZM8.25 31.6379C6.8581 31.6364 5.52367 31.0891 4.53944 30.1162C3.55522 29.1433 3.00159 27.8242 3 26.4483V24.2241H0V21.2586H6V26.4483C6 27.0382 6.23705 27.6039 6.65901 28.021C7.08097 28.4381 7.65326 28.6724 8.25 28.6724C8.84674 28.6724 9.41903 28.4381 9.84099 28.021C10.2629 27.6039 10.5 27.0382 10.5 26.4483V21.2586H16.5V24.2241H13.5V26.4483C13.4984 27.8242 12.9448 29.1433 11.9606 30.1162C10.9763 31.0891 9.6419 31.6364 8.25 31.6379ZM37.5 13.8448H29.031C28.1308 13.8419 27.2506 14.1071 26.5052 14.6059C25.7597 15.1047 25.1836 15.814 24.852 16.6413L22.689 21.9867L17.2785 28.6739L19.6215 30.5273L25.1715 23.6681L27.639 17.743C27.7493 17.4673 27.9412 17.2308 28.1895 17.0644C28.4378 16.8981 28.731 16.8095 29.031 16.8103H37.5C37.8978 16.8103 38.2794 16.9666 38.5607 17.2446C38.842 17.5227 39 17.8999 39 18.2931V28.6724H34.5V43.5H37.5V31.6379H39C39.7954 31.6371 40.558 31.3245 41.1204 30.7685C41.6829 30.2125 41.9992 29.4587 42 28.6724V18.2931C41.9988 17.1137 41.5243 15.983 40.6807 15.149C39.837 14.315 38.6931 13.846 37.5 13.8448ZM33 12.3621C31.8133 12.3621 30.6533 12.0142 29.6666 11.3625C28.6799 10.7108 27.9108 9.7845 27.4567 8.70075C27.0026 7.61699 26.8838 6.42446 27.1153 5.27395C27.3468 4.12344 27.9182 3.06663 28.7574 2.23716C29.5965 1.40769 30.6656 0.842816 31.8295 0.613966C32.9933 0.385116 34.1997 0.50257 35.2961 0.951476C36.3925 1.40038 37.3295 2.16058 37.9888 3.13593C38.6481 4.11128 39 5.25799 39 6.43104C38.998 8.00344 38.3652 9.51089 37.2404 10.6227C36.1157 11.7346 34.5907 12.3601 33 12.3621ZM33 3.46552C32.4067 3.46552 31.8266 3.63944 31.3333 3.9653C30.8399 4.29115 30.4554 4.7543 30.2284 5.29618C30.0013 5.83806 29.9419 6.43433 30.0576 7.00958C30.1734 7.58483 30.4591 8.11324 30.8787 8.52797C31.2982 8.94271 31.8328 9.22515 32.4147 9.33957C32.9967 9.454 33.5999 9.39527 34.1481 9.17082C34.6962 8.94636 35.1648 8.56627 35.4944 8.07859C35.8241 7.59091 36 7.01756 36 6.43104C35.9992 5.64477 35.6829 4.89094 35.1204 4.33497C34.558 3.77899 33.7954 3.46631 33 3.46552Z" fill="black"/>
</svg>
