<svg width="24" height="23" viewBox="0 0 24 23" fill="none" xmlns="http://www.w3.org/2000/svg">
<path d="M13.7308 13.616C14.7121 14.2153 15.8084 14.5807 16.9412 14.6861V14.72C16.9412 15.0128 16.8296 15.2936 16.6311 15.5006C16.4325 15.7077 16.1632 15.824 15.8824 15.824H3.88235C3.60154 15.824 3.33222 15.7077 3.13365 15.5006C2.93508 15.2936 2.82353 15.0128 2.82353 14.72C2.82353 14.4272 2.93508 14.1464 3.13365 13.9394C3.33222 13.7323 3.60154 13.616 3.88235 13.616H13.7308ZM9.91341 7.36C9.98118 8.1328 10.152 8.87322 10.4118 9.568H1.05882C0.778006 9.568 0.50869 9.45169 0.310122 9.24465C0.111554 9.03761 0 8.7568 0 8.464C0 8.1712 0.111554 7.89039 0.310122 7.68335C0.50869 7.47631 0.778006 7.36 1.05882 7.36H9.91341ZM14.1176 20.976C14.1176 20.6832 14.0061 20.4024 13.8075 20.1954C13.609 19.9883 13.3396 19.872 13.0588 19.872H6.70588C6.42507 19.872 6.15575 19.9883 5.95718 20.1954C5.75861 20.4024 5.64706 20.6832 5.64706 20.976C5.64706 21.2688 5.75861 21.5496 5.95718 21.7566C6.15575 21.9637 6.42507 22.08 6.70588 22.08H13.0588C13.3396 22.08 13.609 21.9637 13.8075 21.7566C14.0061 21.5496 14.1176 21.2688 14.1176 20.976ZM17.6471 13.248C19.332 13.248 20.9479 12.5501 22.1393 11.3079C23.3307 10.0656 24 8.38079 24 6.624C24 4.86721 23.3307 3.18237 22.1393 1.94012C20.9479 0.697884 19.332 0 17.6471 0C15.9622 0 14.3463 0.697884 13.1549 1.94012C11.9634 3.18237 11.2941 4.86721 11.2941 6.624C11.2941 8.38079 11.9634 10.0656 13.1549 11.3079C14.3463 12.5501 15.9622 13.248 17.6471 13.248ZM20.2645 3.89491C20.3302 3.96328 20.3824 4.0445 20.4179 4.13392C20.4535 4.22333 20.4719 4.31919 20.4719 4.416C20.4719 4.51281 20.4535 4.60867 20.4179 4.69808C20.3824 4.7875 20.3302 4.86872 20.2645 4.93709L18.6452 6.624L20.2645 8.31091C20.397 8.44911 20.4715 8.63655 20.4715 8.832C20.4715 9.02745 20.397 9.21489 20.2645 9.35309C20.1319 9.49129 19.9522 9.56893 19.7647 9.56893C19.5773 9.56893 19.3975 9.49129 19.2649 9.35309L17.6471 7.6647L16.0292 9.35309C15.8966 9.49129 15.7169 9.56893 15.5294 9.56893C15.342 9.56893 15.1622 9.49129 15.0296 9.35309C14.8971 9.21489 14.8226 9.02745 14.8226 8.832C14.8226 8.63655 14.8971 8.44911 15.0296 8.31091L16.6489 6.624L15.0296 4.93709C14.8971 4.79889 14.8226 4.61145 14.8226 4.416C14.8226 4.22055 14.8971 4.03311 15.0296 3.89491C15.1622 3.75671 15.342 3.67907 15.5294 3.67907C15.7169 3.67907 15.8966 3.75671 16.0292 3.89491L17.6471 5.5833L19.2649 3.89491C19.3305 3.82637 19.4084 3.77199 19.4942 3.73489C19.5799 3.69778 19.6719 3.67868 19.7647 3.67868C19.8576 3.67868 19.9495 3.69778 20.0352 3.73489C20.121 3.77199 20.1989 3.82637 20.2645 3.89491Z" fill="white"/>
</svg>
