<svg width="37" height="38" viewBox="0 0 37 38" fill="none" xmlns="http://www.w3.org/2000/svg">
<path d="M12.9798 34.5868C13.1209 34.7398 13.1959 34.9422 13.1886 35.1502C13.1812 35.3582 13.0921 35.5548 12.9406 35.6974L11.237 37.2905C11.0848 37.4318 10.8828 37.507 10.6753 37.4995C10.4678 37.492 10.2718 37.4024 10.1302 37.2505L0.208897 26.5581C0.067908 26.4051 -0.00697799 26.2025 0.000512353 25.9946C0.00800269 25.7866 0.097264 25.59 0.248899 25.4475L1.95488 23.8568C2.03015 23.7867 2.1185 23.7322 2.21487 23.6962C2.31125 23.6603 2.41375 23.6437 2.51653 23.6475C2.61931 23.6512 2.72035 23.6751 2.81388 23.7179C2.90741 23.7607 2.99159 23.8215 3.06161 23.8968L12.9798 34.5868ZM25.6394 14.468C25.7803 14.6211 25.8552 14.8236 25.8477 15.0316C25.8402 15.2395 25.751 15.4362 25.5993 15.5787L14.8772 25.5949C14.7251 25.7363 14.523 25.8114 14.3155 25.8039C14.108 25.7964 13.912 25.7069 13.7704 25.5549L11.2111 22.7932C11.0701 22.6401 10.9952 22.4376 11.0027 22.2296C11.0102 22.0217 11.0995 21.8251 11.2511 21.6826L21.9709 11.6663C22.0461 11.5963 22.1344 11.5417 22.2307 11.5058C22.327 11.4699 22.4295 11.4533 22.5322 11.457C22.6349 11.4608 22.7359 11.4847 22.8293 11.5275C22.9228 11.5702 23.0069 11.631 23.0769 11.7063L25.6394 14.468ZM16.6279 31.1772C16.9212 31.4933 16.9032 31.9929 16.5879 32.2878L14.8819 33.8801C14.8066 33.9502 14.7183 34.0047 14.6219 34.0406C14.5255 34.0766 14.423 34.0931 14.3202 34.0894C14.2174 34.0857 14.1164 34.0618 14.0229 34.019C13.9294 33.9762 13.8452 33.9154 13.7752 33.8401L3.8593 23.1477C3.71821 22.9948 3.64319 22.7923 3.65053 22.5843C3.65787 22.3764 3.74699 22.1797 3.89852 22.0371L5.60136 20.4456C5.75348 20.3043 5.95549 20.2291 6.163 20.2366C6.37051 20.2441 6.56656 20.3337 6.70809 20.4856L16.6279 31.1772ZM33.1488 14.8516C33.2897 15.0047 33.3644 15.2073 33.3568 15.4153C33.3492 15.6233 33.2598 15.8198 33.108 15.9622L31.4028 17.5545C31.2507 17.696 31.0486 17.7713 30.8409 17.7639C30.6333 17.7566 30.4371 17.6671 30.2953 17.5153L20.3779 6.82525C20.2366 6.67238 20.1614 6.46988 20.1688 6.26185C20.1761 6.05382 20.2654 5.85712 20.4171 5.7146L22.127 4.11843C22.2022 4.04838 22.2905 3.99384 22.3868 3.95793C22.4831 3.92202 22.5855 3.90545 22.6883 3.90917C22.791 3.91288 22.892 3.93681 22.9854 3.97958C23.0789 4.02235 23.163 4.08313 23.2329 4.15844L33.1488 14.8516ZM36.7914 11.4475C36.9322 11.6008 37.007 11.8034 36.9995 12.0114C36.992 12.2194 36.9028 12.4161 36.7514 12.5589L35.0493 14.1504C34.9741 14.2205 34.8859 14.2751 34.7896 14.311C34.6933 14.347 34.5909 14.3637 34.4882 14.36C34.3855 14.3564 34.2845 14.3325 34.191 14.2898C34.0975 14.2471 34.0134 14.1864 33.9433 14.1111L24.0275 3.41643C23.8866 3.26325 23.8116 3.0607 23.819 2.85267C23.8263 2.64463 23.9153 2.44787 24.0667 2.305L25.7703 0.7104C25.8454 0.640224 25.9335 0.585557 26.0298 0.549536C26.126 0.513514 26.2284 0.496847 26.3311 0.500491C26.4337 0.504135 26.5347 0.528017 26.6281 0.570769C26.7215 0.61352 26.8056 0.674299 26.8755 0.749618L36.7914 11.4475Z" fill="black"/>
</svg>
