<svg width="18" height="18" viewBox="0 0 18 18" fill="none" xmlns="http://www.w3.org/2000/svg">
<path d="M6.55407 7.32092L3.7126 10.1624L2.67934 9.12913L8.87891 2.92956L9.91217 3.96282L7.84564 6.02934L9.39554 7.57923L10.4288 6.54597L9.91217 6.02934L10.9454 4.99608L14.8202 8.87081L13.7869 9.90407L11.4621 7.57923L10.4288 8.6125L12.7536 10.9373L11.9787 11.7123L13.012 12.7455L16.1796 9.57792C16.5701 9.18739 16.5701 8.55423 16.1796 8.1637L9.58601 1.57014C9.19549 1.17962 8.56232 1.17962 8.1718 1.57014L1.31992 8.42202C0.929399 8.81254 0.929399 9.44571 1.31992 9.83623L7.91348 16.4298C8.30401 16.8203 8.93717 16.8203 9.3277 16.4298L11.9787 13.7788L10.9454 12.7455L8.62059 15.0704L7.84564 14.2954L10.1705 11.9706L8.36228 10.1624L7.32901 11.1956L8.10396 11.9706L6.81238 13.2622L4.74586 11.1956L6.03744 9.90407L6.55407 10.4207L7.58733 9.38744L7.0707 8.87081L7.58733 8.35418" fill="white"/>
</svg>
