<svg width="36" height="28" viewBox="0 0 36 28" fill="none" xmlns="http://www.w3.org/2000/svg">
<path fill-rule="evenodd" clip-rule="evenodd" d="M26.3332 0.666626C27.6049 0.666626 28.6566 1.38996 29.4265 2.14996C30.2282 2.93829 30.9632 3.99829 31.6165 5.16663C32.9282 7.50996 34.0699 10.5716 34.8249 13.5966C35.5749 16.5983 35.9899 19.7333 35.7249 22.1983C35.4582 24.6733 34.1832 27.3333 31.3332 27.3333C28.8732 27.3333 26.9132 26.0666 25.3099 24.7816L24.7249 24.3L23.9049 23.6083L23.1649 22.995C21.4665 21.62 19.9582 20.6666 17.9999 20.6666C16.0415 20.6666 14.5332 21.62 12.8349 22.995L12.0949 23.6083L11.2749 24.3L10.6915 24.7816C9.08488 26.0666 7.12488 27.3333 4.66655 27.3333C1.81488 27.3333 0.539881 24.6733 0.274881 22.1983C0.0115476 19.7316 0.424881 16.5983 1.17488 13.595C1.92988 10.5716 3.07155 7.51163 4.38321 5.16496C5.03655 3.99829 5.77155 2.93829 6.57322 2.14829C7.34321 1.38996 8.39488 0.666626 9.66655 0.666626C10.5249 0.666626 11.3632 0.871626 12.1882 1.11663L13.1749 1.41829C13.3399 1.46829 13.5032 1.51829 13.6665 1.56329C15.1082 1.97663 16.5832 2.33329 17.9999 2.33329C19.4165 2.33329 20.8916 1.97663 22.3332 1.56329L23.8082 1.11829C24.6382 0.873292 25.4832 0.666626 26.3332 0.666626ZM26.3332 3.99996C25.6949 3.99996 25.0282 4.19329 24.3815 4.40496L23.6182 4.65663C23.496 4.69635 23.3733 4.73414 23.2499 4.76996C21.7749 5.18996 19.9165 5.66663 17.9999 5.66663C16.0832 5.66663 14.2249 5.18996 12.7499 4.76996L12.3832 4.65663L11.6182 4.40496C10.9715 4.19163 10.3049 3.99996 9.66655 3.99996C8.96988 4.12996 8.34488 4.97496 7.87321 5.75829L7.60988 6.21663L7.29322 6.79329C6.15655 8.82329 5.10988 11.5933 4.40988 14.4033C3.75155 17.0316 3.43155 19.5483 3.55321 21.4216L3.59655 21.91L3.62988 22.2033L3.67988 22.55C3.79488 23.2183 4.04321 24 4.66655 24C6.01988 24 7.14988 23.3266 8.55488 22.21L9.22655 21.6633L10.4932 20.6033L11.0665 20.1366C12.8399 18.7316 15.0582 17.3333 17.9999 17.3333C20.9415 17.3333 23.1599 18.7333 24.9332 20.1366L25.5082 20.6033L26.7749 21.6633L27.4449 22.21C28.8499 23.3266 29.9782 24 31.3332 24C31.8999 24 32.1565 23.355 32.2849 22.735L32.3482 22.3716L32.4099 21.8433C32.6149 19.9333 32.2982 17.235 31.5916 14.405C30.9482 11.8283 30.0149 9.28496 28.9882 7.31496L28.3899 6.21496L28.1265 5.75996C27.6549 4.97496 27.0299 4.12996 26.3332 3.99996ZM12.1665 7.33329C13.2716 7.33329 14.3314 7.77228 15.1128 8.55368C15.8942 9.33508 16.3332 10.3949 16.3332 11.5C16.3332 12.605 15.8942 13.6648 15.1128 14.4462C14.3314 15.2276 13.2716 15.6666 12.1665 15.6666C11.0615 15.6666 10.0017 15.2276 9.22027 14.4462C8.43887 13.6648 7.99988 12.605 7.99988 11.5C7.99988 10.3949 8.43887 9.33508 9.22027 8.55368C10.0017 7.77228 11.0615 7.33329 12.1665 7.33329ZM23.8332 7.33329C24.2414 7.33335 24.6354 7.48322 24.9405 7.75448C25.2456 8.02575 25.4405 8.39954 25.4882 8.80496L25.4999 8.99996V9.83329H26.3332C26.758 9.83376 27.1666 9.99642 27.4755 10.288C27.7844 10.5797 27.9703 10.9782 27.9952 11.4023C28.0201 11.8264 27.8821 12.2439 27.6094 12.5697C27.3368 12.8954 26.95 13.1048 26.5282 13.155L26.3332 13.1666H25.4999V14C25.4994 14.4248 25.3368 14.8333 25.0451 15.1422C24.7535 15.4511 24.355 15.637 23.9309 15.6619C23.5068 15.6868 23.0893 15.5488 22.7635 15.2762C22.4377 15.0035 22.2284 14.6168 22.1782 14.195L22.1665 14V13.1666H21.3332C20.9084 13.1662 20.4998 13.0035 20.1909 12.7119C19.882 12.4203 19.6962 12.0217 19.6713 11.5976C19.6464 11.1736 19.7843 10.756 20.057 10.4302C20.3296 10.1045 20.7164 9.89513 21.1382 9.84496L21.3332 9.83329H22.1665V8.99996C22.1665 8.55793 22.3421 8.13401 22.6547 7.82145C22.9673 7.50889 23.3912 7.33329 23.8332 7.33329ZM12.1665 10.6666C11.9455 10.6666 11.7336 10.7544 11.5773 10.9107C11.421 11.067 11.3332 11.2789 11.3332 11.5C11.3332 11.721 11.421 11.9329 11.5773 12.0892C11.7336 12.2455 11.9455 12.3333 12.1665 12.3333C12.3876 12.3333 12.5995 12.2455 12.7558 12.0892C12.9121 11.9329 12.9999 11.721 12.9999 11.5C12.9999 11.2789 12.9121 11.067 12.7558 10.9107C12.5995 10.7544 12.3876 10.6666 12.1665 10.6666Z" fill="black"/>
</svg>
