<svg width="32" height="32" viewBox="0 0 32 32" fill="none" xmlns="http://www.w3.org/2000/svg">
<path d="M16 32C24.8366 32 32 24.8366 32 16C32 7.16345 24.8366 0 16 0C7.16344 0 0 7.16345 0 16C0 24.8366 7.16344 32 16 32Z" fill="#ED6B6A"/>
<path d="M14.5952 18.8296H17.4181V22.2847H22.7544L9.22108 9.71312V22.2847H14.5952V18.8296Z" fill="black"/>
<path d="M17.4025 23.4423H14.5953V23.9299H17.4025V23.4423Z" fill="white"/>
<path d="M22.7544 22.2847L22.7544 9.67083L16 16.0089L22.7544 22.2847Z" fill="#DADADA"/>
<path d="M14.5953 9.72872H9.20553L14.5953 14.6999V9.72872Z" fill="#56B0C0"/>
<path d="M22.7544 9.67083H17.4025V14.6932L22.7544 9.67083Z" fill="white"/>
</svg>
