<?xml version="1.0" encoding="UTF-8"?>
<svg width="22px" height="22px" viewBox="0 0 22 22" version="1.1" xmlns="http://www.w3.org/2000/svg" xmlns:xlink="http://www.w3.org/1999/xlink">
    <!-- Generator: Sketch 61.2 (89653) - https://sketch.com -->
    <title>Components / Icons / AVS / Icon_house`167890-\</title>
    <desc>Created with Sketch.</desc>
    <defs>
        <path d="M18.99,13 C19.11,13 19.22,13.09 19.23,13.21 L19.23,13.21 L19.42,14.53 C19.73,14.65 20.01,14.82 20.27,15.02 L20.27,15.02 L21.51,14.52 C21.63,14.48 21.76,14.52 21.82,14.63 L21.82,14.63 L22.82,16.36 C22.88,16.47 22.85,16.6 22.76,16.68 L22.76,16.68 L21.7,17.51 C21.73,17.67 21.74,17.83 21.74,18 C21.74,18.17 21.72,18.33 21.7,18.49 L21.7,18.49 L22.77,19.32 C22.86,19.4 22.89,19.53 22.83,19.64 L22.83,19.64 L21.83,21.37 C21.76,21.48 21.63,21.52 21.52,21.48 L21.52,21.48 L20.27,20.98 C20.02,21.18 19.73,21.34 19.43,21.47 L19.43,21.47 L19.24,22.79 C19.22,22.91 19.11,23 18.99,23 L18.99,23 L16.99,23 C16.86,23 16.76,22.91 16.74,22.79 L16.74,22.79 L16.55,21.47 C16.24,21.35 15.96,21.18 15.7,20.98 L15.7,20.98 L14.46,21.48 C14.34,21.52 14.21,21.48 14.15,21.37 L14.15,21.37 L13.15,19.64 C13.09,19.53 13.12,19.4 13.21,19.32 L13.21,19.32 L14.27,18.49 C14.25,18.33 14.24,18.17 14.24,18 C14.24,17.83 14.25,17.67 14.27,17.51 L14.27,17.51 L13.21,16.68 C13.11,16.6 13.09,16.47 13.15,16.36 L13.15,16.36 L14.15,14.63 C14.22,14.52 14.35,14.48 14.46,14.52 L14.46,14.52 L15.7,15.02 C15.96,14.82 16.25,14.66 16.55,14.53 L16.55,14.53 L16.74,13.21 C16.76,13.09 16.87,13 16.99,13 L16.99,13 Z M17.99,16.5 C17.16,16.5 16.49,17.17 16.49,18 C16.49,18.83 17.16,19.5 17.99,19.5 C18.82,19.5 19.49,18.83 19.49,18 C19.49,17.17 18.82,16.5 17.99,16.5 Z M11.772,1 L21.723,9.872 L20.392,11.365 L19.015,10.138 L19.015,11 L17.0152,11 L17.0152,8.354 L11.7715,3.68 L7.0152,7.921 L7.0152,17.043 L12.0152,17.043 L12.0152,19.043 L5.015,19.043 L5.015,9.704 L3.151,11.365 L1.82,9.872 L5.015,7.024 L5.015,1.043 L10.025,1.043 L10.025,2.558 L11.772,1 Z M8.0252,3.043 L7.0152,3.043 L7.0152,5.241 L8.0252,4.34 L8.0252,3.043 Z" id="path-1"></path>
    </defs>
    <g id="Page-1" stroke="none" stroke-width="1" fill="none" fill-rule="evenodd">
        <g id="Mobile_p_homeOK" transform="translate(-281.000000, -481.000000)">
            <g id="Group-2-Copy-2" transform="translate(272.000000, 472.000000)">
                <g id="Components-/-Icons-/-360-/-Icon_houseconfig" transform="translate(8.000000, 8.000000)">
                    <mask id="mask-2" fill="white">
                        <use xlink:href="#path-1"></use>
                    </mask>
                    <use id="Combined-Shape" fill="#FFF" fill-rule="nonzero" xlink:href="#path-1"></use>
                </g>
            </g>
        </g>
    </g>
</svg>