<svg width="16" height="12" viewBox="0 0 16 12" fill="none" xmlns="http://www.w3.org/2000/svg">
<path d="M15.3284 4.87616L11.1345 3.36524L9.38143 1.15893C9.229 0.972122 9.03698 0.821675 8.81932 0.718511C8.60166 0.615347 8.36381 0.562055 8.12304 0.562503H3.78592C3.52067 0.562414 3.25942 0.627368 3.02495 0.751701C2.79048 0.876035 2.58992 1.05597 2.44075 1.27583L0.969728 3.44135C0.663349 3.89204 0.49965 4.42484 0.500001 4.97021V9.26158C0.500001 9.40577 0.557147 9.54406 0.658869 9.64602C0.760591 9.74799 0.898555 9.80527 1.04241 9.80527H2.20425C2.32225 10.2719 2.59209 10.6857 2.9711 10.9814C3.35011 11.277 3.81664 11.4375 4.29688 11.4375C4.77711 11.4375 5.24364 11.277 5.62265 10.9814C6.00166 10.6857 6.2715 10.2719 6.3895 9.80527H9.79801C9.916 10.2719 10.1858 10.6857 10.5649 10.9814C10.9439 11.277 11.4104 11.4375 11.8906 11.4375C12.3709 11.4375 12.8374 11.277 13.2164 10.9814C13.5954 10.6857 13.8653 10.2719 13.9832 9.80527H15.1451C15.2889 9.80527 15.4269 9.74799 15.5286 9.64602C15.6304 9.54406 15.6875 9.40577 15.6875 9.26158V5.38777C15.6875 5.27581 15.653 5.16659 15.5887 5.07502C15.5244 4.98345 15.4335 4.914 15.3284 4.87616ZM4.29688 10.349C4.08232 10.349 3.87258 10.2852 3.69418 10.1657C3.51578 10.0462 3.37674 9.87639 3.29463 9.6777C3.21252 9.47901 3.19104 9.26037 3.2329 9.04944C3.27476 8.83851 3.37808 8.64475 3.52979 8.49268C3.68151 8.34061 3.8748 8.23704 4.08524 8.19509C4.29567 8.15313 4.51379 8.17466 4.71202 8.25696C4.91024 8.33926 5.07967 8.47864 5.19887 8.65746C5.31807 8.83628 5.3817 9.04651 5.3817 9.26158C5.38127 9.54984 5.26683 9.82617 5.06348 10.03C4.86013 10.2338 4.58446 10.3485 4.29688 10.349ZM11.8906 10.349C11.6761 10.349 11.4663 10.2852 11.2879 10.1657C11.1095 10.0462 10.9705 9.87639 10.8884 9.6777C10.8063 9.47901 10.7848 9.26037 10.8266 9.04944C10.8685 8.83851 10.9718 8.64475 11.1235 8.49268C11.2753 8.34061 11.4686 8.23704 11.679 8.19509C11.8894 8.15313 12.1075 8.17466 12.3058 8.25696C12.504 8.33926 12.6734 8.47864 12.7926 8.65746C12.9118 8.83628 12.9754 9.04651 12.9754 9.26158C12.9752 9.54988 12.8608 9.82629 12.6574 10.0302C12.454 10.234 12.1782 10.3487 11.8906 10.349ZM14.6027 8.71788H13.9832C13.8653 8.25127 13.5954 7.83741 13.2164 7.54178C12.8374 7.24616 12.3709 7.08565 11.8906 7.08565C11.4104 7.08565 10.9439 7.24616 10.5649 7.54178C10.1858 7.83741 9.916 8.25127 9.79801 8.71788H6.3895C6.2715 8.25127 6.00166 7.83741 5.62265 7.54178C5.24364 7.24616 4.77711 7.08565 4.29688 7.08565C3.81664 7.08565 3.35011 7.24616 2.9711 7.54178C2.59209 7.83741 2.32225 8.25127 2.20425 8.71788H1.58482V4.97021C1.58476 4.64285 1.68305 4.32305 1.86688 4.05246L3.33735 1.88802C3.38707 1.81467 3.45394 1.75462 3.53213 1.71311C3.61032 1.67161 3.69745 1.6499 3.78592 1.64989H8.12304C8.20196 1.64958 8.27999 1.66665 8.3516 1.69991C8.42321 1.73317 8.48665 1.7818 8.53744 1.84235L10.3816 4.16338C10.4444 4.24229 10.5277 4.30215 10.6225 4.33627L14.6027 5.76998V8.71788Z" fill="white"/>
</svg>
