<svg width="14" height="12" viewBox="0 0 14 12" fill="none" xmlns="http://www.w3.org/2000/svg">
<path fill-rule="evenodd" clip-rule="evenodd" d="M7.28125 4.45333L7.2399 0.75866C7.23523 0.341191 7.57217 0.000267178 7.98967 0.000239914C9.37427 0.000149495 10.9234 -0.000122506 12.3167 6.38361e-05C12.7752 0.000125164 13.1263 0.408079 13.0553 0.8611C12.4818 4.52422 11.7739 8.16478 11.1111 11.8125H6.47951L6.70673 9.80545H5.6239C4.26874 9.80545 3.0222 9.3823 2.11379 8.61396C1.15375 7.80189 0.625 6.64107 0.625 5.34536V4.45333H7.28125ZM7.49497 10.9205H10.2022C10.8665 7.56045 11.3928 4.19788 12.0455 0.836538H8.2822V5.34536H1.53389C1.53389 7.44618 3.21577 8.91343 5.6239 8.91343H7.72219L7.49497 10.9205Z" fill="white"/>
<path fill-rule="evenodd" clip-rule="evenodd" d="M11.9688 2.34375H8.21875V1.40625H11.9688V2.34375Z" fill="white"/>
</svg>
