<?xml version="1.0" encoding="UTF-8"?>
<svg width="24px" height="24px" viewBox="0 0 24 24" version="1.1" xmlns="http://www.w3.org/2000/svg" xmlns:xlink="http://www.w3.org/1999/xlink">
    <!-- Generator: Sketch 51.3 (57544) - http://www.bohemiancoding.com/sketch -->
    <title>Components / Icons / 360 / Icon_view  coral</title>
    <desc>Created with Sketch.</desc>
    <defs>
        <path d="M5,14 L3,14 L3,19 C3,20.1 3.9,21 5,21 L10,21 L10,19 L5,19 L5,14 Z M5,5 L10,5 L10,3 L5,3 C3.9,3 3,3.9 3,5 L3,10 L5,10 L5,5 Z M19,3 L14,3 L14,5 L19,5 L19,10 L21,10 L21,5 C21,3.9 20.1,3 19,3 Z M19,19 L19,14 L21,14 L21,19 C21,20.1 20.1,21 19,21 L14,21 L14,19 L19,19 Z M14.14,11.86 L18,17 L6,17 L9,13.14 L11.14,15.73 L14.14,11.86 Z M8,7 C7.44666667,7 7,7.44666667 7,8 C7,8.55333333 7.44666667,9 8,9 C8.55333333,9 9,8.55333333 9,8 C9,7.44666667 8.55333333,7 8,7 Z" id="path-1"></path>
    </defs>
    <g id="Components-/-Icons-/-360-/-Icon_view--coral" stroke="none" stroke-width="1" fill="none" fill-rule="evenodd">
        <mask id="mask-2" fill="white">
            <use xlink:href="#path-1"></use>
        </mask>
        <use id="Shape" fill="#ED6B6A" fill-rule="nonzero" xlink:href="#path-1"></use>
    </g>
</svg>