<svg width="100%" height="100%" viewBox="0 0 15 15" fill="none" xmlns="http://www.w3.org/2000/svg">
<path fill-rule="evenodd" clip-rule="evenodd" d="M11.875 4.26875V7.5H13.125V11.875C13.125 12.5625 12.5625 13.125 11.875 13.125H3.125C2.4375 13.125 1.875 12.5625 1.875 11.875V7.5H10.625V4.26875C10.625 3.98125 10.3938 3.75 10.1062 3.75C9.96875 3.75 9.8375 3.80625 9.74375 3.9L8.9625 4.68125C8.9875 4.7875 9.00625 4.8875 9.00625 5C9.00625 5.25 8.93125 5.48125 8.80625 5.675L7.08125 3.95C7.275 3.825 7.50625 3.75 7.75625 3.75C7.86875 3.75 7.975 3.76875 8.075 3.8L8.85625 3.01875C9.1875 2.6875 9.6375 2.5 10.1062 2.5C11.0813 2.5 11.875 3.29375 11.875 4.26875ZM3.125 11.875H11.875V8.75H3.125V11.875Z" fill="currentColor"/>
</svg>
