<svg width="100%" height="100%" viewBox="0 0 18 18" fill="none" xmlns="http://www.w3.org/2000/svg">
<g clip-path="url(#clip0)">
<path d="M5.89139 16.0168C3.57266 14.8838 1.91339 12.5441 1.65812 9.77767H0.594482C0.956119 14.3099 4.60794 17.8709 9.06812 17.8709L9.53612 17.8489L6.83448 15.0456L5.89139 16.0168ZM6.52248 11.2197C6.38776 11.2197 6.26012 11.1977 6.15376 11.1609C6.0403 11.1167 5.94812 11.0652 5.87012 10.9843C5.79212 10.9107 5.7283 10.8224 5.68576 10.7121C5.64321 10.6091 5.62194 10.4913 5.62194 10.3663H4.70012C4.70012 10.6311 4.74976 10.8666 4.84903 11.0652C4.9483 11.2639 5.08303 11.4331 5.24612 11.5729C5.4163 11.7053 5.60776 11.8083 5.82757 11.8746C6.0403 11.9481 6.26721 11.9849 6.5083 11.9849C6.77066 11.9849 7.01885 11.9481 7.23866 11.8746C7.46557 11.801 7.66412 11.6906 7.82721 11.5508C7.9903 11.411 8.12503 11.2345 8.21721 11.0211C8.30939 10.8077 8.35903 10.5723 8.35903 10.3074C8.35903 10.1676 8.34485 10.0278 8.30939 9.89539C8.27394 9.76295 8.2243 9.63787 8.1463 9.52015C8.07539 9.40243 7.97612 9.29943 7.86266 9.20378C7.74212 9.10813 7.6003 9.03456 7.43012 8.9757C7.57194 8.90948 7.69248 8.82855 7.79885 8.7329C7.90521 8.63725 7.9903 8.53424 8.06121 8.42388C8.13212 8.31352 8.18176 8.20316 8.21721 8.08544C8.25266 7.96772 8.26685 7.85 8.26685 7.73228C8.26685 7.4674 8.2243 7.23196 8.13921 7.02595C8.05412 6.81994 7.93357 6.65072 7.77757 6.51828C7.63576 6.37849 7.4443 6.27549 7.23157 6.20191C7.01176 6.13569 6.77066 6.09891 6.5083 6.09891C6.25303 6.09891 6.01903 6.13569 5.79921 6.21663C5.58648 6.29756 5.39503 6.40792 5.23903 6.54771C5.09012 6.68751 4.96957 6.84937 4.87739 7.04067C4.7923 7.23196 4.74975 7.43797 4.74975 7.66606H5.67157C5.67157 7.54098 5.69285 7.43062 5.73539 7.33497C5.77794 7.23932 5.83466 7.15103 5.91266 7.08481C5.99066 7.0186 6.07576 6.95974 6.18212 6.92295C6.28848 6.88616 6.39485 6.86409 6.52248 6.86409C6.80612 6.86409 7.01885 6.93766 7.15357 7.09217C7.2883 7.23932 7.35921 7.45269 7.35921 7.72492C7.35921 7.85735 7.33794 7.97507 7.30248 8.08544C7.26703 8.1958 7.20321 8.28409 7.12521 8.35766C7.04721 8.43124 6.94794 8.4901 6.83448 8.53425C6.72103 8.57839 6.57921 8.60046 6.42321 8.60046H5.87721V9.35829H6.42321C6.57921 9.35829 6.72103 9.373 6.84866 9.40979C6.9763 9.44658 7.08266 9.50544 7.16776 9.57901C7.25285 9.65995 7.32376 9.75559 7.37339 9.87331C7.42303 9.99103 7.4443 10.1308 7.4443 10.2927C7.4443 10.5943 7.35921 10.8224 7.19612 10.9769C7.03303 11.1462 6.80612 11.2197 6.52248 11.2197ZM12.5852 6.86409C12.3583 6.62129 12.0888 6.42999 11.7768 6.29756C11.4719 6.16512 11.1245 6.09891 10.7416 6.09891H9.06812V11.9849H10.699C11.089 11.9849 11.4507 11.9187 11.7698 11.7863C12.0888 11.6538 12.3654 11.4699 12.5923 11.2271C12.8192 10.9843 12.9965 10.69 13.117 10.3516C13.2376 10.0057 13.3014 9.62316 13.3014 9.19642V8.90212C13.3014 8.47538 13.2376 8.09279 13.117 7.74699C12.9894 7.40119 12.8121 7.10689 12.5852 6.86409ZM12.3087 9.18906C12.3087 9.49808 12.2732 9.77031 12.2094 10.0205C12.1385 10.2633 12.0392 10.4766 11.9045 10.6459C11.7698 10.8151 11.5996 10.9475 11.401 11.0358C11.1954 11.1241 10.9614 11.1682 10.699 11.1682H10.0538V6.92295H10.7416C11.2521 6.92295 11.6421 7.09217 11.9045 7.43062C12.1739 7.76906 12.3087 8.25466 12.3087 8.89476V9.18906ZM9.06812 0.212891L8.60012 0.234963L11.3018 3.03818L12.2448 2.05963C14.5636 3.20004 16.2228 5.53238 16.471 8.2988H17.5347C17.1801 3.77393 13.5283 0.212891 9.06812 0.212891Z" fill="currentColor"/>
</g>
<defs>
<clipPath id="clip0">
<rect width="17.0182" height="17.658" fill="white" transform="translate(0.559082 0.212891)"/>
</clipPath>
</defs>
</svg>
