<svg width="22" height="22" viewBox="0 0 22 22" fill="none" xmlns="http://www.w3.org/2000/svg">
<path fill-rule="evenodd" clip-rule="evenodd" d="M14.2303 12.8734H13.5406L13.2962 12.6377C14.1518 11.6425 14.6668 10.3504 14.6668 8.94487C14.6668 5.81074 12.1264 3.27026 8.99223 3.27026C5.8581 3.27026 3.31763 5.81074 3.31763 8.94487C3.31763 12.079 5.8581 14.6195 8.99223 14.6195C10.3978 14.6195 11.6898 14.1044 12.6851 13.2488L12.9208 13.4933V14.183L17.2859 18.5393L18.5867 17.2385L14.2303 12.8734ZM8.99223 12.8734C6.81842 12.8734 5.06366 11.1187 5.06366 8.94487C5.06366 6.77106 6.81842 5.0163 8.99223 5.0163C11.166 5.0163 12.9208 6.77106 12.9208 8.94487C12.9208 11.1187 11.166 12.8734 8.99223 12.8734ZM8.55572 8.50836V6.76233H9.42874V8.50836H11.1748V9.38137H9.42874V11.1274H8.55572V9.38137H6.80969V8.50836H8.55572Z" fill="#4A4A4A"/>
</svg>
