<svg width="35" height="35" viewBox="0 0 35 35" fill="none" xmlns="http://www.w3.org/2000/svg">
<rect x="0.5" y="0.5" width="34" height="34" rx="17" stroke="currentColor"/>
<path d="M16.1465 18.5566H12.0586V21.6191H16.8369V23H10.3291V13.0469H16.7891V14.4414H12.0586V17.1895H16.1465V18.5566ZM23.4473 20.4365C23.4473 19.999 23.2923 19.6618 22.9824 19.4248C22.6771 19.1878 22.1234 18.9486 21.3213 18.707C20.5192 18.4655 19.8812 18.1966 19.4072 17.9004C18.5003 17.3307 18.0469 16.5879 18.0469 15.6719C18.0469 14.8698 18.3727 14.209 19.0244 13.6895C19.6807 13.1699 20.5306 12.9102 21.5742 12.9102C22.2669 12.9102 22.8844 13.0378 23.4268 13.293C23.9691 13.5482 24.3952 13.9128 24.7051 14.3867C25.015 14.8561 25.1699 15.3779 25.1699 15.9521H23.4473C23.4473 15.4326 23.2832 15.027 22.9551 14.7354C22.6315 14.4391 22.1667 14.291 21.5605 14.291C20.9954 14.291 20.5557 14.4118 20.2412 14.6533C19.9313 14.8949 19.7764 15.2321 19.7764 15.665C19.7764 16.0296 19.945 16.335 20.2822 16.5811C20.6195 16.8226 21.1755 17.0596 21.9502 17.292C22.7249 17.5199 23.347 17.7819 23.8164 18.0781C24.2858 18.3698 24.6299 18.707 24.8486 19.0898C25.0674 19.4681 25.1768 19.9124 25.1768 20.4229C25.1768 21.2523 24.8577 21.9131 24.2197 22.4053C23.5863 22.8929 22.7249 23.1367 21.6357 23.1367C20.9157 23.1367 20.2526 23.0046 19.6465 22.7402C19.0449 22.4714 18.5755 22.1022 18.2383 21.6328C17.9056 21.1634 17.7393 20.6165 17.7393 19.9922H19.4688C19.4688 20.5573 19.6556 20.9948 20.0293 21.3047C20.403 21.6146 20.9385 21.7695 21.6357 21.7695C22.2373 21.7695 22.6885 21.6488 22.9893 21.4072C23.2946 21.1611 23.4473 20.8376 23.4473 20.4365Z" fill="currentColor"/>
</svg>
