<svg width="22" height="22" viewBox="0 0 22 22" fill="none" xmlns="http://www.w3.org/2000/svg">
<path d="M16.6139 7.05799L16.6139 9.89764L10.9521 9.8853V11.6385L16.6139 11.6261L16.6139 14.4658L20.3178 10.7619L16.6139 7.05799ZM7.24826 5.10013L10.0879 5.10013L10.0756 9.89764H11.8287L11.8164 5.10013L14.656 5.10013L10.9521 1.39624L7.24826 5.10013ZM5.2904 14.4658L5.29039 11.6261L10.9521 11.6385V9.8853L5.2904 9.89764L5.29039 7.05799L1.5865 10.7619L5.2904 14.4658ZM14.656 16.4236L11.8164 16.4236L11.8287 11.6385H10.0756L10.0879 16.4236L7.24826 16.4236L10.9521 20.1275L14.656 16.4236Z" fill="#4A4A4A"/>
</svg>
