<svg xmlns="http://www.w3.org/2000/svg" width="19" height="19" viewBox="0 0 19 19">
    <defs>
        <filter id="a" width="106.9%" height="107.1%" x="-3.4%" y="-3.1%" filterUnits="objectBoundingBox">
            <feOffset dy="1" in="SourceAlpha" result="shadowOffsetOuter1"/>
            <feGaussianBlur in="shadowOffsetOuter1" result="shadowBlurOuter1" stdDeviation="1"/>
            <feColorMatrix in="shadowBlurOuter1" result="shadowMatrixOuter1" values="0 0 0 0 0.541321216 0 0 0 0 0.541321216 0 0 0 0 0.541321216 0 0 0 0.5 0"/>
            <feMerge>
                <feMergeNode in="shadowMatrixOuter1"/>
                <feMergeNode in="SourceGraphic"/>
            </feMerge>
        </filter>
    </defs>
    <path fill="#4A4A4A" fill-rule="nonzero" d="M13.063 2.375A4.74 4.74 0 0 0 9.5 4.03a4.74 4.74 0 0 0-3.563-1.655 4.312 4.312 0 0 0-4.354 4.354c0 2.993 2.692 5.431 6.77 9.136L9.5 16.902l1.148-1.045c4.077-3.697 6.769-6.135 6.769-9.128a4.312 4.312 0 0 0-4.355-4.354zm-3.484 12.31l-.079.08-.08-.08C5.653 11.273 3.168 9.017 3.168 6.73c0-1.583 1.187-2.77 2.77-2.77 1.22 0 2.407.783 2.827 1.868h1.48c.412-1.085 1.6-1.869 2.819-1.869 1.583 0 2.77 1.188 2.77 2.771 0 2.288-2.486 4.544-6.254 7.956z" filter="url(#a)"/>
</svg>
