<?xml version="1.0" encoding="UTF-8"?>
<svg width="24px" height="24px" viewBox="0 0 24 24" version="1.1" xmlns="http://www.w3.org/2000/svg" xmlns:xlink="http://www.w3.org/1999/xlink">
    <!-- Generator: Sketch 51.3 (57544) - http://www.bohemiancoding.com/sketch -->
    <title>Icons / 360 / Icon_styles_modern</title>
    <desc>Created with Sketch.</desc>
    <defs></defs>
    <g id="Icons-/-360-/-Icon_styles_modern" stroke="none" stroke-width="1" fill="none" fill-rule="evenodd">
        <g id="Group" transform="translate(1.000000, 0.000000)" fill="#000000" fill-rule="nonzero">
            <path d="M20.9162963,4.79920013 C19.3111111,4.79920013 17.8037037,4.05932345 16.7811111,2.77153808 C15.3796296,1.01183136 13.2733333,0 11,0 C8.72666667,0 6.62037037,1.01183136 5.21888889,2.77153808 C4.19222222,4.05932345 2.68481481,4.79920013 1.0837037,4.79920013 C0.484814815,4.79920013 0,5.27512081 0,5.86302283 L0,5.99900017 C0,6.43892685 0.362592593,6.79886686 0.814814815,6.79886686 C0.814814815,9.85435761 2.66444444,12.485919 5.31666667,13.6937177 L4.28185185,22.776204 C4.20444444,23.064156 4.26555556,23.364106 4.44481481,23.604066 C4.6362963,23.856024 4.92555556,24 5.24333333,24 L5.64259259,24 C6.08259259,24 6.46555556,23.7200467 6.59592593,23.304116 L7.12962963,18.6568905 L11,16.4572571 L14.8622222,18.6488919 L15.3877778,23.2281286 L15.4040741,23.3001166 C15.5303704,23.7160473 15.9133333,23.9960007 16.3533333,23.9960007 L16.7525926,23.9960007 C17.0703704,23.9960007 17.3637037,23.8520247 17.5511111,23.6000667 C17.7344444,23.3601066 17.7914815,23.0601566 17.7140741,22.7722046 L16.6792593,13.6897184 C19.3355556,12.485919 21.1851852,9.85435761 21.1851852,6.79886686 C21.4011111,6.79886686 21.6088889,6.71488085 21.7596296,6.56290618 C21.9144444,6.41493084 22,6.21096484 22,5.99900017 L22,5.86302283 C22,5.27512081 21.5151852,4.79920013 20.9162963,4.79920013 Z M5.64666667,23.196134 L5.24740741,23.196134 C5.16592593,23.196134 5.12111111,23.1521413 5.10074074,23.124146 C5.08037037,23.0961506 5.05185185,23.04016 5.07222222,22.968172 L6.10296296,14.0056657 C6.11925926,14.0096651 6.13148148,14.0136644 6.14777778,14.0176637 C6.35148148,14.0856524 6.56333333,14.1376437 6.77518519,14.1896351 C6.79148148,14.1936344 6.81185185,14.2016331 6.82814815,14.2056324 L5.80962963,23.10015 C5.78111111,23.1561406 5.71592593,23.196134 5.64666667,23.196134 Z M7.24777778,17.6650558 L7.61037037,14.5335777 L10.1851852,15.9973338 L7.24777778,17.6650558 Z M8.99555556,14.3976004 L13.0003704,14.3976004 L11,15.5334111 L8.99555556,14.3976004 Z M11.8148148,15.9973338 L14.3937037,14.5335777 L14.7522222,17.6650558 L11.8148148,15.9973338 Z M15.897037,14.0056657 L16.9114815,22.896184 L16.9277778,22.968172 C16.9522222,23.0441593 16.9196296,23.10015 16.8992593,23.124146 C16.8788889,23.148142 16.8340741,23.196134 16.7525926,23.196134 L16.3533333,23.196134 C16.2840741,23.196134 16.2188889,23.1561406 16.1903704,23.0961506 L15.1718519,14.2016331 C15.1881481,14.1976337 15.2085185,14.1896351 15.2248148,14.1856357 C15.4366667,14.1376437 15.6485185,14.0816531 15.8522222,14.0136644 C15.8685185,14.0096651 15.8848148,14.0096651 15.897037,14.0056657 Z M21.177037,5.99900017 C20.732963,5.99900017 20.3703704,6.35894018 20.3703704,6.79886686 C20.3703704,9.61039827 18.6225926,12.0259957 16.1414815,13.061823 L16.1333333,13.0658224 C16.0844444,13.085819 16.0274074,13.1018164 15.9785185,13.121813 C15.7911111,13.193801 15.6037037,13.2617897 15.4040741,13.3177804 C15.3877778,13.3217797 15.3714815,13.325779 15.3551852,13.3297784 C15.127037,13.3937677 14.8988889,13.445759 14.6585185,13.4857524 C14.2674074,13.553741 13.86,13.5977337 13.4444444,13.5977337 L8.55555556,13.5977337 C8.14,13.5977337 7.73259259,13.553741 7.33740741,13.4857524 C7.10111111,13.445759 6.86888889,13.3897684 6.64074074,13.3297784 C6.62444444,13.325779 6.60814815,13.3217797 6.59185185,13.3177804 C6.3962963,13.2617897 6.20481481,13.193801 6.01740741,13.121813 C5.96444444,13.1018164 5.91148148,13.085819 5.86259259,13.0658224 L5.85444444,13.061823 C3.37740741,12.0259957 1.62962963,9.61039827 1.62962963,6.79886686 C1.62962963,6.35894018 1.26703704,5.99900017 0.814814815,5.99900017 L0.814814815,5.86302283 C0.814814815,5.71504749 0.932962963,5.59906682 1.0837037,5.59906682 C2.94148148,5.59906682 4.68111111,4.7472088 5.86259259,3.26345609 C7.10518519,1.69971671 8.97925926,0.799866689 11,0.799866689 C13.0207407,0.799866689 14.8948148,1.69971671 16.1414815,3.26345609 C17.3188889,4.7472088 19.0625926,5.59906682 20.9162963,5.59906682 C21.062963,5.59906682 21.1851852,5.71504749 21.1851852,5.86302283 L21.177037,5.99900017 Z" id="Shape"></path>
            <path d="M17.0596667,8.51898734 L16.7433333,8.46112116 C13.3026667,7.84629295 9.69733333,7.84629295 6.25666667,8.46112116 L5.94033333,8.51898734 C5.39433333,8.61663653 5,9.02531646 5,9.48824593 L5,10.005425 C5,10.5515371 5.533,11 6.18733333,11 C6.26966667,11 6.35633333,10.9927667 6.43866667,10.9783002 C9.758,10.3851718 13.242,10.3851718 16.5613333,10.9783002 C16.6436667,10.9927667 16.726,11 16.8126667,11 C17.467,11 18,10.5551537 18,10.005425 L18,9.48824593 C18,9.02531646 17.6056667,8.61663653 17.0596667,8.51898734 Z M17.1333333,10.005425 C17.1333333,10.1717902 16.9426667,10.3019892 16.7433333,10.2694394 C15.023,9.96202532 13.2593333,9.80650995 11.5,9.80650995 C9.74066667,9.80650995 7.977,9.96202532 6.25666667,10.2694394 C6.053,10.3019892 5.86666667,10.1754069 5.86666667,10.005425 L5.86666667,9.48824593 C5.86666667,9.36166365 5.975,9.24954792 6.12233333,9.22423146 L6.43866667,9.16636528 C9.758,8.57323689 13.242,8.57323689 16.5613333,9.16636528 L16.8776667,9.22423146 C17.025,9.24954792 17.1333333,9.36166365 17.1333333,9.48824593 L17.1333333,10.005425 Z" id="Shape"></path>
        </g>
    </g>
</svg>