<?xml version="1.0" encoding="UTF-8"?>
<svg width="24px" height="24px" viewBox="0 0 24 24" version="1.1" xmlns="http://www.w3.org/2000/svg" xmlns:xlink="http://www.w3.org/1999/xlink">
    <!-- Generator: Sketch 51.3 (57544) - http://www.bohemiancoding.com/sketch -->
    <title>Components / Icons / 360 / Icon_layout  gray</title>
    <desc>Created with Sketch.</desc>
    <defs>
        <polyline id="path-1" points="8 12.5 8 18 6 18 6 6 8 6 8 10 11 10 11 8 10 8 10 6 17.5 6 17.5 8 13 8 13 10 17.5 10 17.5 11.5 19.5 11.5 19.5 4 4 4 4 20 19.5 20 19.5 13.5 17.5 13.5 17.5 18 16 18 16 13.5 12.5 13.5 12.5 15.5 14 15.5 14 18 10 18 10 15.5 11 15.5 11 13.5 10 13.5 10 12.5"></polyline>
    </defs>
    <g id="Components-/-Icons-/-360-/-Icon_layout--gray" stroke="none" stroke-width="1" fill="none" fill-rule="evenodd">
        <mask id="mask-2" fill="white">
            <use xlink:href="#path-1"></use>
        </mask>
        <use id="Path-3" fill="#4A4A4A" fill-rule="nonzero" transform="translate(11.750000, 12.000000) rotate(-315.000000) translate(-11.750000, -12.000000) " xlink:href="#path-1"></use>
    </g>
</svg>