<?xml version="1.0" encoding="UTF-8"?>
<svg width="24px" height="24px" viewBox="0 0 24 24" version="1.1" xmlns="http://www.w3.org/2000/svg" xmlns:xlink="http://www.w3.org/1999/xlink">
    <!-- Generator: Sketch 51.3 (57544) - http://www.bohemiancoding.com/sketch -->
    <title>Components / Icons / 360 / Icon_styles_intermediate 1  coral</title>
    <desc>Created with Sketch.</desc>
    <defs>
        <path d="M18.630202,12.3668468 C19.0992129,12.267683 19.5558384,12.1572174 19.998,12.0357 L20.528,13.9637 C19.8351507,14.1541914 19.11041,14.3194224 18.36072,14.45855 L19.848,22.8245 L17.879,23.1745 L16.3827671,14.75819 C16.0136489,14.8021503 15.6403548,14.8402148 15.2636,14.8722966 L15.2636,21 L13.2636,21 L13.2636,14.9851289 C12.9209715,14.9948228 12.5766056,14.9997 12.231,14.9997 C11.9071445,14.9997 11.5845425,14.9954577 11.2636,14.9870247 L11.2636,21 L9.2636,21 L9.2636,14.8786191 C8.81496696,14.8414831 8.37152707,14.7959155 7.9344861,14.7420695 L6.2437,23.196 L4.2827,22.803 L5.95663786,14.4333107 C5.28068764,14.3042856 4.62673016,14.1538604 4,13.9827 L4.527,12.0527 C4.9667576,12.173022 5.42150481,12.282309 5.8891366,12.3803124 L5.2229,3.053 L5.7389,2.736 C7.5829,1.6 9.7929,1 12.1289,1 C14.5629,1 16.9379,1.681 18.8139,2.919 L19.3039,3.242 L18.630202,12.3668468 Z M16.5994501,12.7153592 L17.2209,4.288 C14.3749,2.673 10.2249,2.613 7.3059,4.144 L7.91890627,12.7243338 C9.29544434,12.9061778 10.7474921,12.9997 12.231,12.9997 C13.7310262,12.9997 15.2023325,12.9030968 16.5994501,12.7153592 Z" id="path-1"></path>
    </defs>
    <g id="Components-/-Icons-/-360-/-Icon_styles_intermediate-1--coral" stroke="none" stroke-width="1" fill="none" fill-rule="evenodd">
        <mask id="mask-2" fill="white">
            <use xlink:href="#path-1"></use>
        </mask>
        <use id="Combined-Shape" fill="#ED6B6A" xlink:href="#path-1"></use>
    </g>
</svg>