<svg xmlns="http://www.w3.org/2000/svg" width="24" height="24" viewBox="0 0 24 24">
    <defs>
        <filter id="a" width="133.3%" height="133.3%" x="-16.7%" y="-16.7%" filterUnits="objectBoundingBox">
            <feOffset in="SourceAlpha" result="shadowOffsetOuter1"/>
            <feGaussianBlur in="shadowOffsetOuter1" result="shadowBlurOuter1" stdDeviation="1"/>
            <feColorMatrix in="shadowBlurOuter1" result="shadowMatrixOuter1" values="0 0 0 0 0 0 0 0 0 0 0 0 0 0 0 0 0 0 0.5 0"/>
            <feMerge>
                <feMergeNode in="shadowMatrixOuter1"/>
                <feMergeNode in="SourceGraphic"/>
            </feMerge>
        </filter>
    </defs>
    <path fill="#FFF" fill-rule="nonzero" d="M21 5a1 1 0 0 1 1 1v13a1 1 0 0 1-1 1h-5.265a1 1 0 0 1-.854-.48l-2.036-3.337a1 1 0 0 0-1.703-.008L9.054 19.53a1 1 0 0 1-.85.471H3a1 1 0 0 1-1-1V6a1 1 0 0 1 1-1h18zm-4 5a2 2 0 1 0 0 4 2 2 0 0 0 0-4zM7 10a2 2 0 1 0 0 4 2 2 0 0 0 0-4z" filter="url(#a)"/>
</svg>
