<svg xmlns="http://www.w3.org/2000/svg" width="24" height="24" viewBox="0 0 24 24">
    <path fill="#4A4A4A" fill-rule="nonzero" d="M18.99 13c.12 0 .23.09.24.21l.19 1.32c.31.12.59.29.85.49l1.24-.5c.12-.04.25 0 .31.11l1 1.73c.06.11.03.24-.06.32l-1.06.83c.03.16.04.32.04.49 0 .17-.02.33-.04.49l1.07.83c.09.08.12.21.06.32l-1 1.73c-.07.11-.2.15-.31.11l-1.25-.5c-.25.2-.54.36-.84.49l-.19 1.32c-.02.12-.13.21-.25.21h-2c-.13 0-.23-.09-.25-.21l-.19-1.32c-.31-.12-.59-.29-.85-.49l-1.24.5c-.12.04-.25 0-.31-.11l-1-1.73a.26.26 0 0 1 .06-.32l1.06-.83a3.908 3.908 0 0 1 0-.98l-1.06-.83a.248.248 0 0 1-.06-.32l1-1.73c.07-.11.2-.15.31-.11l1.24.5c.26-.2.55-.36.85-.49l.19-1.32c.02-.12.13-.21.25-.21zM18 3a1 1 0 0 1 1 1v7h-2V5h-7v3h4v2h-4v4H8V5H5v13h6v2H4a1 1 0 0 1-1-1V4a1 1 0 0 1 1-1h14zm-.01 13.5c-.83 0-1.5.67-1.5 1.5s.67 1.5 1.5 1.5 1.5-.67 1.5-1.5-.67-1.5-1.5-1.5z"/>
</svg>
