<svg xmlns="http://www.w3.org/2000/svg" xmlns:xlink="http://www.w3.org/1999/xlink" width="24" height="24" viewBox="0 0 24 24">
    <defs>
        <path id="a" d="M14.55 11c.75 0 1.41-.41 1.75-1.03l3.58-6.49A.996.996 0 0 0 19.01 2H4.21l-.94-2H0v2h2l3.6 7.59-1.35 2.44C3.52 13.37 4.48 15 6 15h12v-2H6l1.1-2h7.45zM5.16 4h12.15l-2.76 5H7.53L5.16 4zM6 16c-1.1 0-1.99.9-1.99 2S4.9 20 6 20s2-.9 2-2-.9-2-2-2zm10 0c-1.1 0-1.99.9-1.99 2s.89 2 1.99 2 2-.9 2-2-.9-2-2-2z"/>
    </defs>
    <g fill="none" fill-rule="evenodd" transform="translate(2 2)">
        <mask id="b" fill="#fff">
            <use xlink:href="#a"/>
        </mask>
        <use fill="#000" fill-rule="nonzero" xlink:href="#a"/>
        <g fill="#4A4A4A" fill-rule="nonzero" mask="url(#b)">
            <path d="M-2-2h24v24H-2z"/>
        </g>
    </g>
</svg>
