<?xml version="1.0" encoding="UTF-8"?>
<svg width="24px" height="24px" viewBox="0 0 24 24" version="1.1" xmlns="http://www.w3.org/2000/svg" xmlns:xlink="http://www.w3.org/1999/xlink">
    <!-- Generator: Sketch 51.3 (57544) - http://www.bohemiancoding.com/sketch -->
    <title>Icons / 360 / Icon_styles_coastal</title>
    <desc>Created with Sketch.</desc>
    <defs></defs>
    <g id="Icons-/-360-/-Icon_styles_coastal" stroke="none" stroke-width="1" fill="none" fill-rule="evenodd">
        <path d="M21,23 L21,22.6136662 C21,22.1169514 20.9180577,10.195795 20.8634294,9.34034166 C20.754173,8.23653088 19.6889226,8.20893561 19.3338392,8.20893561 C19.2245827,8.20893561 19.1426404,8.20893561 19.060698,8.20893561 L18.9241275,8.20893561 C18.7056146,8.20893561 18.4871017,8.26412615 18.323217,8.34691196 C18.2685888,6.74638633 18.2139605,5.17345598 18.2139605,4.40078844 C18.1866464,2.77266754 17.9408194,2.27595269 17.0394537,2.22076216 C16.9848255,2.22076216 16.9575114,2.22076216 16.9028832,2.22076216 C16.4112291,2.11038108 13.2974203,2.02759527 12.1775417,2 C12.1502276,2 12.0955994,2 11.9863429,2 C11.8770865,2 11.8224583,2 11.7951442,2 C10.6752656,2.02759527 7.56145675,2.11038108 7.09711684,2.19316689 C7.04248862,2.19316689 6.98786039,2.19316689 6.96054628,2.19316689 C6.05918058,2.27595269 5.81335357,2.74507227 5.78603945,4.37319317 C5.78603945,5.14586071 5.73141123,6.71879106 5.676783,8.31931669 C5.51289833,8.23653088 5.29438543,8.18134034 5.07587253,8.18134034 L4.93930197,8.18134034 C4.85735964,8.18134034 4.74810319,8.18134034 4.66616085,8.18134034 C4.31107739,8.18134034 3.2185129,8.20893561 3.13657056,9.31274639 C3.05462822,10.1681997 3,22.0893561 3,22.586071 L3,22.9724047 L5.43095599,22.9724047 L5.54021244,20.847569 L11.8497724,20.847569 L12.2594841,20.847569 L18.569044,20.847569 L18.6783005,22.9724047 L21,22.9724047 L21,23 Z M18.9241275,8.95400788 L19.060698,8.95400788 C19.1426404,8.95400788 19.2245827,8.95400788 19.306525,8.95400788 C19.9893778,8.98160315 20.0713202,9.14717477 20.0986343,9.36793693 L18.3505311,9.36793693 C18.3505311,9.34034166 18.3505311,9.34034166 18.3505311,9.31274639 C18.4051593,9.25755585 18.5963581,8.95400788 18.9241275,8.95400788 Z M18.8968134,14.8869908 C18.8694992,14.9145861 18.7875569,14.9421813 18.7602428,14.9421813 C18.1866464,15.0249671 13.8163885,14.9697766 12.1775417,14.9421813 C10.1836115,14.9697766 5.73141123,15.0249671 5.18512898,14.9421813 C5.10318665,14.9421813 5.07587253,14.9145861 5.04855842,14.8869908 C5.02124431,14.8318003 5.04855842,14.6386334 5.07587253,14.5282523 C5.23975721,14.0591327 5.64946889,13.7003942 5.8952959,13.4796321 C6.05918058,13.369251 6.44157815,13.2036794 7.17905918,13.2036794 C8.35356601,13.1760841 11.3034901,13.2036794 12.1775417,13.2036794 C12.2048558,13.2036794 15.400607,13.1760841 16.7663126,13.2036794 C17.5037936,13.2036794 17.8861912,13.369251 18.0500759,13.4796321 C18.2959029,13.6727989 18.6783005,14.0591327 18.8694992,14.5282523 C18.8968134,14.6110381 18.9514416,14.804205 18.8968134,14.8869908 Z M7.01517451,2.96583443 C7.06980273,2.96583443 7.12443096,2.96583443 7.20637329,2.93823916 C7.61608498,2.88304862 10.6206373,2.80026281 12.0136571,2.77266754 C13.3793627,2.80026281 16.4112291,2.88304862 16.8209408,2.93823916 C16.875569,2.93823916 16.9301973,2.93823916 17.0121396,2.96583443 C17.2852807,2.9934297 17.4491654,2.9934297 17.4764795,4.37319317 C17.5037936,5.97371879 17.6949924,10.8856767 17.7496206,12.4862024 C17.5037936,12.4310118 17.2033384,12.4034166 16.8482549,12.3758213 C15.7010622,12.348226 13.2701062,12.3758213 12.5053111,12.3758213 C12.2594841,12.3758213 8.57207891,12.348226 7.23368741,12.3758213 C6.87860395,12.3758213 6.57814871,12.4310118 6.3323217,12.4862024 C6.38694992,10.8856767 6.57814871,5.97371879 6.60546282,4.37319317 C6.57814871,3.02102497 6.74203338,2.9934297 7.01517451,2.96583443 Z M4.66616085,8.95400788 C4.74810319,8.95400788 4.83004552,8.95400788 4.93930197,8.95400788 L5.07587253,8.95400788 C5.37632777,8.95400788 5.59484067,9.22996058 5.64946889,9.31274639 C5.64946889,9.34034166 5.64946889,9.34034166 5.64946889,9.36793693 L3.90136571,9.39553219 C3.90136571,9.39553219 3.90136571,9.39553219 3.90136571,9.36793693 C3.90136571,9.14717477 3.98330804,8.98160315 4.66616085,8.95400788 Z M4.63884674,22.1997372 L3.73748103,22.1997372 C3.76479514,18.5019711 3.81942337,12.4034166 3.84673748,10.1681997 L5.59484067,10.1406045 C5.54021244,11.3547963 5.51289833,12.3758213 5.48558422,12.7897503 C5.48558422,12.7897503 5.45827011,12.8173456 5.43095599,12.8173456 C5.29438543,12.9277267 5.18512898,13.0105125 5.15781487,13.065703 C4.88467375,13.3416557 4.52959029,13.7279895 4.36570561,14.1971091 C4.36570561,14.2247043 4.3383915,14.2522996 4.31107739,14.3350854 C4.25644917,14.5282523 4.20182094,14.7490145 4.20182094,14.9697766 C4.22913505,16.1011827 4.42033384,20.2956636 4.42033384,20.4888305 L4.44764795,20.847569 L4.66616085,20.847569 L4.63884674,22.1997372 Z M11.76783,20.1024967 L5.2124431,20.1024967 C5.15781487,19.2194481 5.07587253,16.9842313 5.02124431,15.6872536 C5.04855842,15.6872536 5.04855842,15.6872536 5.07587253,15.6872536 C5.34901366,15.7148489 6.3323217,15.7424442 7.50682853,15.7424442 C9.50075873,15.7424442 11.9863429,15.7148489 12.4506829,15.6872536 C13.215478,15.6872536 15.15478,15.7424442 16.7116844,15.7424442 C17.7223065,15.7424442 18.5963581,15.7424442 18.8694992,15.6872536 C18.8968134,15.6872536 18.9241275,15.6872536 18.9514416,15.6596583 C18.8968134,16.956636 18.814871,19.1918528 18.7602428,20.0473062 L12.2048558,20.0473062 L11.76783,20.0473062 L11.76783,20.1024967 Z M19.4977238,20.8751643 L19.5250379,20.5164258 C19.5250379,20.3508541 19.7435508,16.1287779 19.7435508,14.9973719 C19.7708649,14.1695138 19.2245827,13.4796321 18.7875569,13.0932983 C18.7329287,13.0381078 18.6509863,12.9553219 18.5144158,12.8449409 C18.4871017,12.8449409 18.4871017,12.8173456 18.4597876,12.8173456 C18.4324734,12.4034166 18.4051593,11.3823916 18.3505311,10.1681997 L20.0986343,10.1681997 C20.1532625,12.3758213 20.2078907,18.5295664 20.2078907,22.2273325 L19.306525,22.2273325 L19.2792109,20.8751643 L19.4977238,20.8751643 Z" id="Shape" fill="#000000" fill-rule="nonzero"></path>
    </g>
</svg>