<?xml version="1.0" encoding="UTF-8"?>
<svg width="40px" height="40px" viewBox="0 0 40 40" version="1.1" xmlns="http://www.w3.org/2000/svg" xmlns:xlink="http://www.w3.org/1999/xlink">
    <!-- Generator: Sketch 51.3 (57544) - http://www.bohemiancoding.com/sketch -->
    <title>Components / Icons / Layouts / icon_Levels gray</title>
    <desc>Created with Sketch.</desc>
    <defs>
        <path d="M35,31.8277137 L25.5333333,31.8277137 L25.5333333,27.0518091 L18.8666667,27.0518091 L18.8666667,22.2759046 L12.2,22.2759046 L12.2,17.5 L5,17.5 L5,15 L15,15 L15,19.7759046 L21.6666667,19.7759046 L21.6666667,24.5518091 L28.3333333,24.5518091 L28.3333333,29.3277137 L35,29.3277137 L35,31.8277137 Z M26.3983575,16.639634 L31.8256039,17.3079002 L29.7332367,12.589667 L28.6236715,13.9377336 L25.7490821,11.8785077 L24.6228986,13.2236908 L27.5086957,15.290486 L26.3983575,16.639634 Z M19.2424155,9.37016662 L22.1170048,11.4293925 L23.2431884,10.0834885 L20.3573913,8.01669329 L21.4677295,6.66862664 L16.0404831,6 L18.1328502,10.7182333 L19.2424155,9.37016662 Z" id="path-1"></path>
    </defs>
    <g id="Components-/-Icons-/-Layouts-/-icon_Levels-gray" stroke="none" stroke-width="1" fill="none" fill-rule="evenodd">
        <mask id="mask-2" fill="white">
            <use xlink:href="#path-1"></use>
        </mask>
        <use id="Shape" fill="#6C6C6C" fill-rule="nonzero" xlink:href="#path-1"></use>
    </g>
</svg>