<svg width="100%" height="100%" viewBox="0 0 15 15" fill="none" xmlns="http://www.w3.org/2000/svg">
<path fill-rule="evenodd" clip-rule="evenodd" d="M12.5 6.875C13.1875 6.875 13.75 7.4375 13.75 8.125V11.25H12.9187L12.5 12.5H11.875L11.4625 11.25H3.54375L3.125 12.5H2.5L2.08125 11.25H1.25V8.125C1.25 7.4375 1.8125 6.875 2.5 6.875V5C2.5 4.3125 3.0625 3.75 3.75 3.75H11.25C11.9375 3.75 12.5 4.3125 12.5 5V6.875ZM8.125 6.875H11.25V5H8.125V6.875ZM3.75 5H6.875V6.875H3.75V5ZM12.5 8.125H2.5V10H12.5V8.125Z" fill="currentColor"/>
</svg>
