<svg width="16" height="16" viewBox="0 0 16 16" fill="none" xmlns="http://www.w3.org/2000/svg">
<path d="M13.8924 11.2901V4.70989C14.258 4.61622 14.5922 4.42749 14.8612 4.16285C15.1302 3.89822 15.3244 3.56712 15.4241 3.20317C15.5237 2.83921 15.5253 2.45536 15.4286 2.0906C15.332 1.72584 15.1405 1.39316 14.8737 1.12633C14.6068 0.859497 14.2742 0.668027 13.9094 0.571358C13.5446 0.474689 13.1608 0.476265 12.7968 0.575924C12.4329 0.675583 12.1018 0.869777 11.8371 1.13879C11.5725 1.4078 11.3838 1.74204 11.2901 2.10759H4.70989C4.61622 1.74204 4.42749 1.4078 4.16285 1.13879C3.89822 0.869777 3.56712 0.675583 3.20317 0.575924C2.83921 0.476265 2.45536 0.474689 2.0906 0.571358C1.72584 0.668027 1.39316 0.859497 1.12633 1.12633C0.859497 1.39316 0.668027 1.72584 0.571358 2.0906C0.474689 2.45536 0.476265 2.83921 0.575924 3.20317C0.675583 3.56712 0.869777 3.89822 1.13879 4.16285C1.4078 4.42749 1.74204 4.61622 2.10759 4.70989V11.2901C1.74204 11.3838 1.4078 11.5725 1.13879 11.8371C0.869777 12.1018 0.675583 12.4329 0.575924 12.7968C0.476265 13.1608 0.474689 13.5446 0.571358 13.9094C0.668027 14.2742 0.859497 14.6068 1.12633 14.8737C1.39316 15.1405 1.72584 15.332 2.0906 15.4286C2.45536 15.5253 2.83921 15.5237 3.20317 15.4241C3.56712 15.3244 3.89822 15.1302 4.16285 14.8612C4.42749 14.5922 4.61622 14.258 4.70989 13.8924H11.2901C11.3838 14.258 11.5725 14.5922 11.8371 14.8612C12.1018 15.1302 12.4329 15.3244 12.7968 15.4241C13.1608 15.5237 13.5446 15.5253 13.9094 15.4286C14.2742 15.332 14.6068 15.1405 14.8737 14.8737C15.1405 14.6068 15.332 14.2742 15.4286 13.9094C15.5253 13.5446 15.5237 13.1608 15.4241 12.7968C15.3244 12.4329 15.1302 12.1018 14.8612 11.8371C14.5922 11.5725 14.258 11.3838 13.8924 11.2901ZM13.3567 1.57191C13.5686 1.57191 13.7758 1.63474 13.952 1.75247C14.1281 1.87019 14.2655 2.03751 14.3465 2.23327C14.4276 2.42904 14.4488 2.64445 14.4075 2.85227C14.3662 3.06009 14.2641 3.25099 14.1143 3.40082C13.9645 3.55065 13.7736 3.65268 13.5658 3.69402C13.3579 3.73536 13.1425 3.71414 12.9468 3.63306C12.751 3.55197 12.5837 3.41465 12.4659 3.23847C12.3482 3.06229 12.2854 2.85515 12.2854 2.64326C12.2857 2.35921 12.3986 2.08687 12.5995 1.88602C12.8004 1.68516 13.0727 1.57219 13.3567 1.57191ZM1.57191 2.64326C1.57191 2.43137 1.63474 2.22423 1.75247 2.04805C1.87019 1.87187 2.03751 1.73455 2.23327 1.65346C2.42904 1.57237 2.64445 1.55116 2.85227 1.5925C3.06009 1.63383 3.25099 1.73587 3.40082 1.8857C3.55065 2.03553 3.65268 2.22643 3.69402 2.43425C3.73536 2.64207 3.71414 2.85748 3.63306 3.05325C3.55197 3.24901 3.41465 3.41633 3.23847 3.53405C3.06229 3.65177 2.85515 3.71461 2.64326 3.71461C2.35921 3.71432 2.08687 3.60136 1.88602 3.4005C1.68516 3.19965 1.57219 2.92731 1.57191 2.64326ZM2.64326 14.4281C2.43137 14.4281 2.22423 14.3653 2.04805 14.2475C1.87187 14.1298 1.73455 13.9625 1.65346 13.7667C1.57237 13.571 1.55116 13.3556 1.5925 13.1477C1.63383 12.9399 1.73587 12.749 1.8857 12.5992C2.03553 12.4494 2.22643 12.3473 2.43425 12.306C2.64207 12.2646 2.85748 12.2859 3.05325 12.3669C3.24901 12.448 3.41633 12.5853 3.53405 12.7615C3.65177 12.9377 3.71461 13.1448 3.71461 13.3567C3.71432 13.6408 3.60136 13.9131 3.4005 14.114C3.19965 14.3148 2.92731 14.4278 2.64326 14.4281ZM11.2901 12.8211H4.70989C4.61394 12.4528 4.42148 12.1167 4.15237 11.8476C3.88325 11.5785 3.54722 11.3861 3.17893 11.2901V4.70989C3.5472 4.61388 3.8832 4.42141 4.15231 4.15231C4.42141 3.8832 4.61388 3.5472 4.70989 3.17893H11.2901C11.3861 3.54722 11.5785 3.88325 11.8476 4.15237C12.1167 4.42148 12.4528 4.61394 12.8211 4.70989V11.2901C12.4528 11.386 12.1167 11.5785 11.8476 11.8476C11.5785 12.1167 11.386 12.4528 11.2901 12.8211ZM13.3567 14.4281C13.1448 14.4281 12.9377 14.3653 12.7615 14.2475C12.5853 14.1298 12.448 13.9625 12.3669 13.7667C12.2859 13.571 12.2646 13.3556 12.306 13.1477C12.3473 12.9399 12.4494 12.749 12.5992 12.5992C12.749 12.4494 12.9399 12.3473 13.1477 12.306C13.3556 12.2646 13.571 12.2859 13.7667 12.3669C13.9625 12.448 14.1298 12.5853 14.2475 12.7615C14.3653 12.9377 14.4281 13.1448 14.4281 13.3567C14.4277 13.6407 14.3147 13.913 14.1138 14.1138C13.913 14.3147 13.6407 14.4277 13.3567 14.4281Z" fill="white"/>
</svg>
