<svg width="16" height="12" viewBox="0 0 16 12" fill="none" xmlns="http://www.w3.org/2000/svg">
<path d="M13.4545 2.87512H8C7.81917 2.87512 7.64575 2.94756 7.51788 3.07649C7.39002 3.20542 7.31818 3.38029 7.31818 3.56262V7.68762H1.86364V1.0625C1.86364 0.880164 1.7918 0.705296 1.66394 0.576364C1.53607 0.447433 1.36265 0.375 1.18182 0.375C1.00099 0.375 0.827566 0.447433 0.6997 0.576364C0.571834 0.705296 0.5 0.880164 0.5 1.0625V11.1251C0.5 11.3075 0.571834 11.4823 0.6997 11.6113C0.827566 11.7402 1.00099 11.8126 1.18182 11.8126C1.36265 11.8126 1.53607 11.7402 1.66394 11.6113C1.7918 11.4823 1.86364 11.3075 1.86364 11.1251V9.06262H14.1364V11.1251C14.1364 11.3075 14.2082 11.4823 14.3361 11.6113C14.4639 11.7402 14.6374 11.8126 14.8182 11.8126C14.999 11.8126 15.1724 11.7402 15.3003 11.6113C15.4282 11.4823 15.5 11.3075 15.5 11.1251V4.93762C15.5 4.39061 15.2845 3.86601 14.9009 3.47921C14.5173 3.09242 13.997 2.87512 13.4545 2.87512ZM14.1364 7.68762H8.68182V4.25012H13.4545C13.6354 4.25012 13.8088 4.32256 13.9367 4.45149C14.0645 4.58042 14.1364 4.75529 14.1364 4.93762V7.68762Z" fill="white"/>
<path fill-rule="evenodd" clip-rule="evenodd" d="M4.53125 6.37512C5.20435 6.37512 5.75 5.82947 5.75 5.15637C5.75 4.48327 5.20435 3.93762 4.53125 3.93762C3.85815 3.93762 3.3125 4.48327 3.3125 5.15637C3.3125 5.82947 3.85815 6.37512 4.53125 6.37512ZM4.53125 7.31262C5.72211 7.31262 6.6875 6.34724 6.6875 5.15637C6.6875 3.96551 5.72211 3.00012 4.53125 3.00012C3.34039 3.00012 2.375 3.96551 2.375 5.15637C2.375 6.34724 3.34039 7.31262 4.53125 7.31262Z" fill="white"/>
</svg>
