<svg xmlns="http://www.w3.org/2000/svg" width="24" height="24" viewBox="0 0 24 24">
    <path fill="#4A4A4A" fill-rule="nonzero" d="M15.26 2.75c.77.02 1.5.48 1.81 1.23l4.96 11.97c.42 1.01-.07 2.18-1.09 2.6l-7.36 3.05a1.998 1.998 0 0 1-2.6-1.08L6.02 8.55a1.999 1.999 0 0 1 1.08-2.6l7.37-3.05c.26-.11.53-.15.79-.15zM5.88 13.41l3.45 8.34H7.88c-1.1 0-2-.9-2-2v-6.34zm-2.01-2.23v9.03l-1.34-.56a2.019 2.019 0 0 1-1.09-2.61l2.43-5.86zm11.36-6.43h-.01L7.87 7.79l4.96 11.96 7.35-3.05-4.95-11.95zM11 8a1 1 0 1 1 0 2 1 1 0 0 1 0-2z"/>
</svg>
