<svg width="34" height="34" viewBox="0 0 34 34" fill="none" xmlns="http://www.w3.org/2000/svg">
<path d="M9.625 10.5C9.625 10.2679 9.71719 10.0454 9.88128 9.88128C10.0454 9.71719 10.2679 9.625 10.5 9.625C10.7321 9.625 10.9546 9.71719 11.1187 9.88128C11.2828 10.0454 11.375 10.2679 11.375 10.5H25.375C25.6071 10.5 25.8296 10.5922 25.9937 10.7563C26.1578 10.9204 26.25 11.1429 26.25 11.375C26.25 11.6071 26.1578 11.8296 25.9937 11.9937C25.8296 12.1578 25.6071 12.25 25.375 12.25H11.375V25.8125C11.375 25.9285 11.3289 26.0398 11.2469 26.1219C11.1648 26.2039 11.0535 26.25 10.9375 26.25H10.0625C9.94647 26.25 9.83519 26.2039 9.75314 26.1219C9.67109 26.0398 9.625 25.9285 9.625 25.8125V10.5Z" fill="white"/>
<path d="M12.25 13.7812C12.25 13.6072 12.3191 13.4403 12.4422 13.3172C12.5653 13.1941 12.7322 13.125 12.9062 13.125H24.7188C24.8928 13.125 25.0597 13.1941 25.1828 13.3172C25.3059 13.4403 25.375 13.6072 25.375 13.7812V21.2188C25.375 21.8569 25.1215 22.469 24.6702 22.9202C24.219 23.3715 23.6069 23.625 22.9688 23.625H14.6562C14.3403 23.625 14.0274 23.5628 13.7354 23.4418C13.4435 23.3209 13.1782 23.1437 12.9548 22.9202C12.5035 22.469 12.25 21.8569 12.25 21.2188V13.7812ZM15.75 17.9025V20.5625C15.75 20.6785 15.7961 20.7898 15.8781 20.8719C15.9602 20.9539 16.0715 21 16.1875 21H17.7188C17.7768 21 17.8324 20.977 17.8734 20.9359C17.9145 20.8949 17.9375 20.8393 17.9375 20.7812V19.6875C17.9375 19.5715 17.9836 19.4602 18.0656 19.3781C18.1477 19.2961 18.259 19.25 18.375 19.25H19.25C19.366 19.25 19.4773 19.2961 19.5594 19.3781C19.6414 19.4602 19.6875 19.5715 19.6875 19.6875V20.7812C19.6875 20.902 19.7855 21 19.9062 21H21.4375C21.5535 21 21.6648 20.9539 21.7469 20.8719C21.8289 20.7898 21.875 20.6785 21.875 20.5625V17.9025C21.875 17.7761 21.8476 17.6512 21.7948 17.5364C21.7419 17.4216 21.6648 17.3197 21.5687 17.2375L19.0978 15.12C19.0185 15.0522 18.9177 15.015 18.8134 15.015C18.7091 15.015 18.6082 15.0522 18.529 15.12L16.0554 17.2375C15.9596 17.3196 15.8827 17.4215 15.83 17.5361C15.7773 17.6508 15.75 17.7755 15.75 17.9016V17.9025Z" fill="white"/>
<circle cx="17" cy="17" r="16.25" stroke="white" stroke-width="1.5"/>
</svg>
