<?xml version="1.0" encoding="UTF-8"?>
<svg width="24px" height="24px" viewBox="0 0 24 24" version="1.1" xmlns="http://www.w3.org/2000/svg" xmlns:xlink="http://www.w3.org/1999/xlink">
    <!-- Generator: Sketch 51.3 (57544) - http://www.bohemiancoding.com/sketch -->
    <title>Icons / 360 / Icon_styles_traditional</title>
    <desc>Created with Sketch.</desc>
    <defs></defs>
    <g id="Icons-/-360-/-Icon_styles_traditional" stroke="none" stroke-width="1" fill="none" fill-rule="evenodd">
        <g id="Group-2" transform="translate(2.000000, 2.000000)" fill="#000000" fill-rule="nonzero">
            <path d="M2.5,7.5 C1.12168997,7.5 0,8.57684725 0,9.90049431 C0,10.7191125 0.505058018,11.3280759 0.99970247,11.8159609 C1.78964594,12.5963626 2.19019637,13.3285473 2.19019637,13.9925139 L2.19019637,19.7142694 C2.19019637,19.8717784 2.32296935,20 2.48735495,20 L4.70209759,20 C4.86648319,20 5,19.8721356 5,19.7142694 L5,9.90049431 C5,8.57684725 3.87831003,7.5 2.5,7.5 Z M4.40456709,19.4285388 L2.78525736,19.4285388 L2.78525736,13.9925139 C2.78525736,13.1742528 2.32817614,12.3084891 1.42665873,11.4177239 C0.994867599,10.9912709 0.59580482,10.5126722 0.59580482,9.90049431 C0.59580482,8.89186525 1.45008926,8.07146123 2.50037191,8.07146123 C3.55065457,8.07146123 4.40493901,8.89186525 4.40493901,9.90049431 L4.40493901,19.4285388 L4.40456709,19.4285388 Z" id="Shape"></path>
            <path d="M14.0480791,12.5 L5.95227865,12.5 C5.42709339,12.5 5,12.9209957 5,13.4382493 L5,19.0617507 C5,19.5790043 5.42709339,20 5.95227865,20 L14.0477211,20 C14.5729064,20 14.9999998,19.5790043 14.9999998,19.0613981 L14.9999998,13.4386019 C15.0003578,12.9209957 14.5729064,12.5 14.0480791,12.5 Z M14.4275586,19.0613981 C14.4275586,19.2676649 14.2575088,19.4358516 14.0477211,19.4358516 L5.95227865,19.4358516 C5.74249094,19.4358516 5.57244119,19.2680175 5.57244119,19.0617507 L5.57244119,13.4382493 C5.57244119,13.2323351 5.74249094,13.0641484 5.95227865,13.0641484 L14.0477211,13.0641484 C14.2575088,13.0641484 14.4275586,13.2319825 14.4275586,13.4382493 L14.4275586,19.0613981 Z" id="Shape"></path>
            <path d="M16.3324484,3.56386671 C15.7452294,2.52814003 14.9867673,1.70327763 14.0781601,1.11196509 C12.9445108,0.374126048 11.5724576,0 10.000328,0 C8.42819838,0 7.05614519,0.374126048 5.92249592,1.11196509 C5.01388868,1.70327763 4.25542668,2.52814003 3.6682076,3.56386671 C2.650244,5.35900233 2.50220853,7.16306342 2.50080202,7.18091437 C2.48919829,7.34380423 2.60488396,7.48661179 2.75854548,7.49925621 C2.76592967,7.5 2.77366549,7.5 2.78104968,7.5 C2.92803026,7.5 3.04758385,7.38285318 3.05953921,7.22702931 C3.08028527,6.95628998 3.63620944,0.593172014 9.99997639,0.593172014 C16.3637433,0.593172014 16.9200191,6.95628998 16.9404136,7.22702931 C16.9520173,7.38024991 17.0747355,7.5 17.2196063,7.5 C17.2269905,7.5 17.2343747,7.5 17.2414073,7.49925621 C17.3954204,7.48661179 17.5111061,7.34380423 17.4991508,7.18091437 C17.4984475,7.16306342 17.3500604,5.35900233 16.3324484,3.56386671 Z" id="Shape"></path>
            <path d="M17.4992561,7.5 C16.1211129,7.5 15,8.57684725 15,9.90049431 L15,19.7142694 C15,19.8717784 15.1327927,20 15.2979467,20 L17.512275,20 C17.676313,20 17.8094778,19.8721356 17.8094778,19.7142694 L17.8094778,13.9925139 C17.8094778,13.3285473 18.2100878,12.5963626 19.0005208,11.8159609 C19.4944949,11.3277187 20,10.7187554 20,9.90049431 C19.999628,8.57684725 18.8781431,7.5 17.4992561,7.5 Z M18.573501,11.4173667 C17.6718494,12.3081319 17.2143282,13.1738957 17.2143282,13.9921567 L17.2143282,19.4281816 L15.5947776,19.4281816 L15.5947776,9.90013715 C15.5947776,9.4115378 15.7930368,8.95222584 16.1523583,8.60684896 C16.5124237,8.26147208 16.9904032,8.07110406 17.499628,8.07110406 C18.549695,8.07110406 19.4044785,8.89150809 19.4044785,9.90013715 C19.4048505,10.5126722 19.0049844,10.9912709 18.573501,11.4173667 Z" id="Shape"></path>
        </g>
    </g>
</svg>