<?xml version="1.0" encoding="UTF-8"?>
<svg width="24px" height="24px" viewBox="0 0 24 24" version="1.1" xmlns="http://www.w3.org/2000/svg" xmlns:xlink="http://www.w3.org/1999/xlink">
    <!-- Generator: Sketch 51.3 (57544) - http://www.bohemiancoding.com/sketch -->
    <title>Components / Icons / 360 / Icon_personalize  coral</title>
    <desc>Created with Sketch.</desc>
    <defs>
        <path d="M11,10 C13.21,10 15,8.21 15,6 C15,3.79 13.21,2 11,2 C8.79,2 7,3.79 7,6 C7,8.21 8.79,10 11,10 Z M11,4 C12.1,4 13,4.9 13,6 C13,7.1 12.1,8 11,8 C9.9,8 9,7.1 9,6 C9,4.9 9.9,4 11,4 Z M5,16 L10,16 L12.5772266,18 L3,18 L3,16 C3,13.34 8.33,12 11,12 C13.7629163,12 14.7548398,12.46 15.1448398,12.5 L14.5,14.5 C13.1666667,14.1666667 12,14 11,14 C9.5,14 5.2,15.37 5,16 Z M16,19.3333333 L12.9083333,21.5833333 L14.0916667,17.95 L11,15.75 L14.7916667,15.75 L16,12 L17.2083333,15.75 L21,15.75 L17.9083333,17.95 L19.0916667,21.5833333 L16,19.3333333 Z" id="path-1"></path>
    </defs>
    <g id="Components-/-Icons-/-360-/-Icon_personalize--coral" stroke="none" stroke-width="1" fill="none" fill-rule="evenodd">
        <mask id="mask-2" fill="white">
            <use xlink:href="#path-1"></use>
        </mask>
        <use id="Shape" fill="#ED6B6A" fill-rule="nonzero" xlink:href="#path-1"></use>
    </g>
</svg>