<svg width="22" height="22" viewBox="0 0 22 22" fill="none" xmlns="http://www.w3.org/2000/svg">
<path fill-rule="evenodd" clip-rule="evenodd" d="M14.2303 13.0163H13.5406L13.2962 12.7805C14.1518 11.7853 14.6668 10.4932 14.6668 9.08769C14.6668 5.95356 12.1264 3.41309 8.99223 3.41309C5.8581 3.41309 3.31763 5.95356 3.31763 9.08769C3.31763 12.2218 5.8581 14.7623 8.99223 14.7623C10.3978 14.7623 11.6898 14.2472 12.6851 13.3917L12.9208 13.6361V14.3258L17.2859 18.6821L18.5867 17.3813L14.2303 13.0163ZM8.99223 13.0163C6.81842 13.0163 5.06366 11.2615 5.06366 9.08769C5.06366 6.91388 6.81842 5.15912 8.99223 5.15912C11.166 5.15912 12.9208 6.91388 12.9208 9.08769C12.9208 11.2615 11.166 13.0163 8.99223 13.0163ZM11.1748 8.65118H6.80969V9.5242H11.1748V8.65118Z" fill="#4A4A4A"/>
</svg>
