<svg xmlns="http://www.w3.org/2000/svg" width="24" height="24" viewBox="0 0 24 24">
    <path fill="#ED6B6A" fill-rule="nonzero" d="M14.335 4.822c3.82 2.205 5.133 7.109 2.928 10.928-2.205 3.82-7.109 5.133-10.928 2.928a6.765 6.765 0 0 1-.84-.565 11.995 11.995 0 0 0 6.572-5.363 11.995 11.995 0 0 0 1.358-8.373c.311.122.615.275.91.445m1-1.732a9.973 9.973 0 0 0-5.005-1.331c1.724 2.993 1.855 6.787.005 9.991-1.85 3.204-5.2 4.988-8.655 4.991a9.973 9.973 0 0 0 3.655 3.67c4.78 2.76 10.9 1.12 13.66-3.661 2.76-4.78 1.12-10.9-3.66-13.66z"/>
</svg>
