<svg width="20" height="13" viewBox="0 0 20 13" fill="none" xmlns="http://www.w3.org/2000/svg">
<path fill-rule="evenodd" clip-rule="evenodd" d="M18.325 9.75C18.325 10.6438 17.5833 11.375 16.6667 11.375H20V13H0V11.375H3.33333C2.40833 11.375 1.66667 10.6438 1.66667 9.75V1.625C1.66667 0.723125 2.40833 0 3.33333 0H16.6667C17.5833 0 18.3333 0.723125 18.3333 1.625L18.325 9.75ZM3.33333 1.625V9.75L16.6667 9.75813V1.625H3.33333Z" fill="black"/>
<path fill-rule="evenodd" clip-rule="evenodd" d="M11.6667 4.0625C11.6667 4.9595 10.92 5.6875 10 5.6875C9.08 5.6875 8.33333 4.9595 8.33333 4.0625C8.33333 3.1655 9.08 2.4375 10 2.4375C10.92 2.4375 11.6667 3.1655 11.6667 4.0625ZM10.8333 4.0625C10.8333 4.511 10.46 4.875 10 4.875C9.54 4.875 9.16667 4.511 9.16667 4.0625C9.16667 3.614 9.54 3.25 10 3.25C10.46 3.25 10.8333 3.614 10.8333 4.0625Z" fill="black"/>
<path fill-rule="evenodd" clip-rule="evenodd" d="M10 6.33749C11.1267 6.33749 13.3333 6.92249 13.3333 8.28099V8.93749H6.66667V8.28099C6.66667 6.92249 8.87333 6.33749 10 6.33749ZM10 7.3125C9.22666 7.3125 8.28 7.6245 7.87333 7.9625H12.1333C11.7267 7.6245 10.78 7.3125 10 7.3125Z" fill="black"/>
</svg>
