<svg width="100%" height="100%" viewBox="0 0 17 17" fill="none" xmlns="http://www.w3.org/2000/svg">
<path d="M8.57149 3.75C5.3572 3.75 2.6122 5.74929 1.50006 8.57143C2.6122 11.3936 5.3572 13.3929 8.57149 13.3929C11.7858 13.3929 14.5308 11.3936 15.6429 8.57143C14.5308 5.74929 11.7858 3.75 8.57149 3.75ZM8.57149 11.7857C6.7972 11.7857 5.3572 10.3457 5.3572 8.57143C5.3572 6.79714 6.7972 5.35714 8.57149 5.35714C10.3458 5.35714 11.7858 6.79714 11.7858 8.57143C11.7858 10.3457 10.3458 11.7857 8.57149 11.7857ZM8.57149 6.64286C7.50435 6.64286 6.64292 7.50429 6.64292 8.57143C6.64292 9.63857 7.50435 10.5 8.57149 10.5C9.63863 10.5 10.5001 9.63857 10.5001 8.57143C10.5001 7.50429 9.63863 6.64286 8.57149 6.64286Z" fill="currentColor"/>
<path d="M2.40771 13.5L15.4077 3" stroke="currentColor"/>
</svg>
