<?xml version="1.0" encoding="UTF-8"?>
<svg width="24px" height="24px" viewBox="0 0 24 24" version="1.1" xmlns="http://www.w3.org/2000/svg" xmlns:xlink="http://www.w3.org/1999/xlink">
    <!-- Generator: Sketch 51.3 (57544) - http://www.bohemiancoding.com/sketch -->
    <title>Components / Icons / 360 / Icon_styles_modern2  coral</title>
    <desc>Created with Sketch.</desc>
    <defs>
        <path d="M7.0171,11.4951 C6.9381,11.7631 6.9731,12.0461 7.1161,12.2831 C7.1941,12.4131 7.3731,12.6371 7.6941,12.6801 C9.3281,12.8911 10.7091,13.0001 11.7951,13.0001 C13.5341,13.0001 15.1951,12.7911 16.2821,12.6161 C16.5971,12.5641 16.7691,12.3401 16.8451,12.2101 C16.9831,11.9711 17.0131,11.6851 16.9311,11.4181 L15.4971,8.8581 C15.0491,8.0551 14.7081,7.2091 14.4861,6.3441 C14.2321,5.3351 13.4681,3.0001 11.8521,3.0001 C10.3771,3.0001 9.5441,5.7891 9.3231,6.6441 C9.0991,7.5261 8.7561,8.3861 8.3061,9.1931 L7.0171,11.4951 Z M17.0921367,19.1314153 L16.7380505,17.5380274 L14.9197677,18.2262615 L17.0921367,19.1314153 Z M17.6227898,21.5193541 L12.194789,19.2576871 L6.33938853,21.4740016 L5.9521,23.2168 L4.0001,22.7828 L5.95559026,13.9830938 C5.74258415,13.7933693 5.55600854,13.5693548 5.4031,13.3161 C4.9341,12.5381 4.8461,11.6001 5.1601,10.7441 C5.1791,10.6941 5.2011,10.6451 5.2261,10.5991 L6.5601,8.2191 C6.9251,7.5631 7.2031,6.8661 7.3861,6.1481 C8.2421,2.8271 9.8281,1.0001 11.8521,1.0001 C13.9801,1.0001 15.6461,2.7671 16.4251,5.8491 C16.6031,6.5451 16.8791,7.2291 17.2431,7.8831 L18.7181,10.5171 C18.7431,10.5601 18.7641,10.6061 18.7811,10.6521 C19.1011,11.5001 19.0261,12.4321 18.5761,13.2111 C18.4163352,13.4874298 18.2163501,13.7306124 17.9855967,13.9339851 L19.3496061,20.0720276 L19.3613,20.0769 L19.3543771,20.093497 L19.952,22.7828 L18,23.2168 L17.6227898,21.5193541 Z M7.72709661,15.2293153 L12.2298126,17.1054469 L16.2996002,15.5650007 L16.1002708,14.6680185 C14.592727,14.8881894 13.1476896,15.0001 11.7951,15.0001 C10.7170679,15.0001 9.38859794,14.9044937 7.84159794,14.7140593 L7.72709661,15.2293153 Z M7.28638475,17.2125186 L6.85837131,19.1385791 L9.50483394,18.1368725 L7.28638475,17.2125186 Z" id="path-1"></path>
    </defs>
    <g id="Components-/-Icons-/-360-/-Icon_styles_modern2--coral" stroke="none" stroke-width="1" fill="none" fill-rule="evenodd">
        <mask id="mask-2" fill="white">
            <use xlink:href="#path-1"></use>
        </mask>
        <use id="Combined-Shape" fill="#ED6B6A" xlink:href="#path-1"></use>
    </g>
</svg>