<svg width="35" height="35" viewBox="0 0 35 35" fill="none" xmlns="http://www.w3.org/2000/svg">
<rect x="0.5" y="0.5" width="34" height="34" rx="17" stroke="currentColor"/>
<path d="M16.0303 18.7822H12.0244V23H10.2949V13.0469H16.6182V14.4414H12.0244V17.4014H16.0303V18.7822ZM21.6494 19.165H19.7217V23H17.9922V13.0469H21.4922C22.6406 13.0469 23.527 13.3044 24.1514 13.8193C24.7757 14.3343 25.0879 15.0794 25.0879 16.0547C25.0879 16.7201 24.9261 17.2783 24.6025 17.7295C24.2835 18.1761 23.8369 18.5202 23.2627 18.7617L25.498 22.9111V23H23.6455L21.6494 19.165ZM19.7217 17.7773H21.499C22.0824 17.7773 22.5381 17.6315 22.8662 17.3398C23.1943 17.0436 23.3584 16.6403 23.3584 16.1299C23.3584 15.5967 23.2057 15.1842 22.9004 14.8926C22.5996 14.6009 22.1484 14.4505 21.5469 14.4414H19.7217V17.7773Z" fill="currentColor"/>
</svg>
