<?xml version="1.0" encoding="UTF-8"?>
<svg width="24px" height="24px" viewBox="0 0 24 24" version="1.1" xmlns="http://www.w3.org/2000/svg" xmlns:xlink="http://www.w3.org/1999/xlink">
    <!-- Generator: Sketch 51.3 (57544) - http://www.bohemiancoding.com/sketch -->
    <title>Components / Icons / 360 / Icon_360s white</title>
    <desc>Created with Sketch.</desc>
    <defs>
        <path d="M12,12 C12.4900393,12 23.9997161,12.038331 24,15.3625331 C24,17.1735433 20.5470118,18.2849348 13.6410353,18.6967075 L13.6171864,17.2444921 C18.5276108,16.6550879 21.3613779,16.1637446 22.1184877,15.7704623 C22.4495339,15.5987518 22.4529409,15.1216399 22.1224625,14.9493061 C20.8116216,14.2668272 17.3055411,13.4531503 12.0002839,13.4531503 C6.69531065,13.4531503 3.1889462,14.2665156 1.87782142,14.9493061 C1.54734302,15.1222631 1.55075001,15.5987518 1.88122841,15.7704623 C2.9691951,16.33639 5.60336914,17.0328924 9.82520229,17.2214311 L9.15941892,16.171299 L10.1687408,15.2304754 C11.4076878,16.9323293 12.0181075,17.8555042 12,18 C11.9859165,18.1123848 11.3065051,19.0418502 9.96176596,20.7883963 L9.15941892,20 L10.012303,18.6829956 C7.01897506,18.553979 0,17.9727812 0,15.3628447 C0,12.038331 11.5099607,12 12,12 Z M2.06440625,11.3901538 L2.06440625,9.97415385 L2.210375,9.97415385 C2.9061875,10.4098462 3.55784375,10.6270769 4.16534375,10.6270769 C4.6454375,10.6270769 5.020625,10.5184615 5.29090625,10.3006154 C5.5611875,10.0830769 5.69646875,9.76461538 5.69646875,9.34584615 C5.69646875,9.01353846 5.591,8.75661538 5.37978125,8.57569231 C5.1685625,8.39476923 4.7320625,8.304 4.06971875,8.304 L3.66865625,8.304 L3.66865625,7.17230769 L4.0469375,7.17230769 C5.06759375,7.17230769 5.5780625,6.83169231 5.5780625,6.15015385 C5.5780625,5.86430769 5.46865625,5.64738462 5.24984375,5.49969231 C5.03103125,5.35169231 4.7196875,5.27784615 4.31553125,5.27784615 C3.77159375,5.27784615 3.13371875,5.49046154 2.401625,5.916 L2.2649375,5.916 L2.2649375,4.51507692 C3.0366875,4.19938462 3.77946875,4.04123077 4.49328125,4.04123077 C5.337875,4.04123077 5.97659375,4.21076923 6.4094375,4.54984615 C6.84228125,4.88892308 7.05884375,5.33907692 7.05884375,5.90092308 C7.05884375,6.31969231 6.93875,6.68615385 6.69884375,7.00030769 C6.45865625,7.31446154 6.1383125,7.52461538 5.73725,7.63107692 L5.73725,7.70092308 C6.19596875,7.79076923 6.5590625,7.98584615 6.82653125,8.28676923 C7.094,8.58769231 7.22759375,8.97569231 7.22759375,9.45107692 C7.22759375,10.1821538 6.9725,10.7673846 6.46203125,11.2061538 C5.9515625,11.6449231 5.26053125,11.8643077 4.388375,11.8643077 C3.54378125,11.8636923 2.7689375,11.7055385 2.06440625,11.3901538 Z M17.2850937,11.8636923 C16.3524687,11.8636923 15.6681875,11.5535385 15.23225,10.9341538 C14.7960312,10.3138462 14.5783437,9.31938462 14.5783437,7.95015385 C14.5783437,6.59415385 14.796875,5.60369231 15.2345,4.97876923 C15.672125,4.35384615 16.3552812,4.04153846 17.2850937,4.04153846 C18.2149062,4.04153846 18.8983437,4.35323077 19.3359687,4.97630769 C19.7733125,5.59938462 19.992125,6.58923077 19.992125,7.94523077 C19.992125,9.32461538 19.775,10.3224615 19.3404687,10.9390769 C18.9059375,11.5556923 18.2208125,11.8636923 17.2850937,11.8636923 Z M17.2850937,5.20276923 C16.8595625,5.20276923 16.55525,5.42123077 16.3715937,5.85846154 C16.1876562,6.29538462 16.0959687,6.99446154 16.0959687,7.95476923 C16.0959687,8.912 16.1899062,9.60984615 16.3783437,10.0486154 C16.5667812,10.4873846 16.869125,10.7067692 17.285375,10.7067692 C17.701625,10.7067692 18.0039687,10.4843077 18.1924062,10.0390769 C18.3808437,9.59353846 18.4750625,8.89569231 18.4750625,7.94492308 C18.4750625,6.98769231 18.3830937,6.29138462 18.1994375,5.856 C18.0149375,5.42061538 17.7103437,5.20276923 17.2850937,5.20276923 Z M13.1152813,4.16584615 L13.1152813,5.452 L12.9828125,5.452 C12.6945313,5.29907692 12.3460625,5.22276923 11.9390938,5.22276923 C10.6968125,5.22276923 10.0040938,5.93415385 9.86121875,7.35661538 C10.4628125,6.96430769 11.0064688,6.76830769 11.4924688,6.76830769 C12.164375,6.76830769 12.7055,6.97938462 13.11725,7.40153846 C13.5287188,7.82369231 13.7345938,8.41538462 13.7345938,9.17661538 C13.7345938,9.96769231 13.4879375,10.6132308 12.9940625,11.1132308 C12.5001875,11.6138462 11.86625,11.8636923 11.0914063,11.8636923 C10.20125,11.8636923 9.5200625,11.5636923 9.0475625,10.9633846 C8.5750625,10.3636923 8.3388125,9.49723077 8.3388125,8.36369231 C8.3388125,6.97107692 8.651,5.90246154 9.275375,5.15784615 C9.89975,4.41353846 10.8056563,4.04123077 11.9936563,4.04123077 C12.4132813,4.04123077 12.7870625,4.08276923 13.1152813,4.16584615 Z M9.857,8.16923077 L9.85221875,8.37353846 C9.849125,8.48307692 9.84771875,8.57138462 9.84771875,8.63784615 C9.84771875,10.0406154 10.2639688,10.7415385 11.0964688,10.7415385 C11.4305938,10.7415385 11.7003125,10.6123077 11.9050625,10.3526154 C12.110375,10.0935385 12.21275,9.72953846 12.21275,9.26092308 C12.21275,8.34676923 11.7765313,7.88984615 10.9049375,7.88984615 C10.5649063,7.89015385 10.2153125,7.98307692 9.857,8.16923077 Z M21.5,6 C20.6715729,6 20,5.32842712 20,4.5 C20,3.67157288 20.6715729,3 21.5,3 C22.3284271,3 23,3.67157288 23,4.5 C23,5.32842712 22.3284271,6 21.5,6 Z" id="path-1"></path>
    </defs>
    <g id="Components-/-Icons-/-360-/-Icon_360s-white" stroke="none" stroke-width="1" fill="none" fill-rule="evenodd">
        <mask id="mask-2" fill="white">
            <use xlink:href="#path-1"></use>
        </mask>
        <use id="Combined-Shape" fill="#FAFAFA" fill-rule="nonzero" xlink:href="#path-1"></use>
    </g>
</svg>