<?xml version="1.0" encoding="UTF-8"?>
<svg width="24px" height="24px" viewBox="0 0 24 24" version="1.1" xmlns="http://www.w3.org/2000/svg" xmlns:xlink="http://www.w3.org/1999/xlink">
    <!-- Generator: Sketch 51.3 (57544) - http://www.bohemiancoding.com/sketch -->
    <title>Icon_rorate_landscape coral</title>
    <desc>Created with Sketch.</desc>
    <defs>
        <path d="M21.8796296,1 L12.6450617,1 C12,1 11.4907407,1.50925926 11.4907407,2.15432099 L11.4907407,11.4567901 L2.15432099,11.4567901 C1.50925926,11.4567901 1,11.9660494 1,12.6111111 L1,21.845679 C1,22.4907407 1.50925926,23 2.15432099,23 L16.0740741,23 C16.7191358,23 17.2283951,22.4907407 17.2283951,21.845679 L17.2283951,17.2623457 L21.845679,17.2623457 C22.4907407,17.2623457 23,16.7530864 23,16.1080247 L23,2.1882716 C23.0339506,1.54320988 22.5246914,1 21.8796296,1 Z M15.3271605,21.0987654 L2.93518519,21.0987654 L2.93518519,13.4259259 L15.3271605,13.4259259 L15.3271605,21.0987654 Z M21.0987654,15.3271605 L17.2623457,15.3271605 L17.2623457,12.6450617 C17.2623457,12 16.7530864,11.4907407 16.1080247,11.4907407 L13.4259259,11.4907407 L13.4259259,2.93518519 L21.132716,2.93518519 L21.132716,15.3271605 L21.0987654,15.3271605 Z M7.41666667,6.46604938 L5.17592593,6.46604938 C5.17592593,4.46296296 6.80555556,2.83333333 8.80864198,2.83333333 L8.80864198,1 C5.78703704,1 3.34259259,3.44444444 3.34259259,6.46604938 L1,6.46604938 L4.22530864,9.69135802 L7.41666667,6.46604938 Z" id="path-1"></path>
    </defs>
    <g id="Icon_rorate_landscape-coral" stroke="none" stroke-width="1" fill="none" fill-rule="evenodd">
        <mask id="mask-2" fill="white">
            <use xlink:href="#path-1"></use>
        </mask>
        <use id="Shape" fill="#ED6B6A" fill-rule="nonzero" xlink:href="#path-1"></use>
    </g>
</svg>