<?xml version="1.0" encoding="UTF-8"?>
<svg width="24px" height="24px" viewBox="0 0 24 24" version="1.1" xmlns="http://www.w3.org/2000/svg" xmlns:xlink="http://www.w3.org/1999/xlink">
    <!-- Generator: Sketch 51.3 (57544) - http://www.bohemiancoding.com/sketch -->
    <title>Components / Icons / 360 / Icon_styles gray</title>
    <desc>Created with Sketch.</desc>
    <defs>
        <path d="M5,14 L5,12 L5,11.0003 L3,11.0003 L3,17.0003 L5,17.0003 L5,14 Z M7,12 L17,12 L17,14 L7,14 L7,17.0003 L17,17.0003 L17,5 L7,5 L7,12 Z M5,9.0003 L5,3 L19,3 L19,9.0003 L23,9.0003 L23,19.0003 L18,19.0003 L18,21 L16,21 L16,19.0003 L8,19.0003 L8,21 L6,21 L6,19.0003 L1,19.0003 L1,9.0003 L5,9.0003 Z M19,17.0003 L21,17.0003 L21,11.0003 L19,11.0003 L19,17.0003 Z M10,11 C9.44771525,11 9,10.5522847 9,10 C9,9.44771525 9.44771525,9 10,9 C10.5522847,9 11,9.44771525 11,10 C11,10.5522847 10.5522847,11 10,11 Z M10,8 C9.44771525,8 9,7.55228475 9,7 C9,6.44771525 9.44771525,6 10,6 C10.5522847,6 11,6.44771525 11,7 C11,7.55228475 10.5522847,8 10,8 Z M14,8 C13.4477153,8 13,7.55228475 13,7 C13,6.44771525 13.4477153,6 14,6 C14.5522847,6 15,6.44771525 15,7 C15,7.55228475 14.5522847,8 14,8 Z M14,11 C13.4477153,11 13,10.5522847 13,10 C13,9.44771525 13.4477153,9 14,9 C14.5522847,9 15,9.44771525 15,10 C15,10.5522847 14.5522847,11 14,11 Z" id="path-1"></path>
    </defs>
    <g id="Components-/-Icons-/-360-/-Icon_styles-gray" stroke="none" stroke-width="1" fill="none" fill-rule="evenodd">
        <mask id="mask-2" fill="white">
            <use xlink:href="#path-1"></use>
        </mask>
        <use id="Combined-Shape" fill="#4A4A4A" fill-rule="nonzero" xlink:href="#path-1"></use>
    </g>
</svg>