<svg width="100%" height="100%" viewBox="0 0 15 15" fill="none" xmlns="http://www.w3.org/2000/svg">
<path fill-rule="evenodd" clip-rule="evenodd" d="M11.825 3.75625C11.7 3.3875 11.35 3.125 10.9375 3.125H4.0625C3.65 3.125 3.30625 3.3875 3.175 3.75625L1.875 7.5V12.5C1.875 12.8438 2.15625 13.125 2.5 13.125H3.125C3.46875 13.125 3.75 12.8438 3.75 12.5V11.875H11.25V12.5C11.25 12.8438 11.5312 13.125 11.875 13.125H12.5C12.8438 13.125 13.125 12.8438 13.125 12.5V7.5L11.825 3.75625ZM4.28125 4.375H10.7125L11.3875 6.31875H3.60625L4.28125 4.375ZM3.125 10.625H11.875V7.5H3.125V10.625ZM4.6875 10C5.20527 10 5.625 9.58027 5.625 9.0625C5.625 8.54473 5.20527 8.125 4.6875 8.125C4.16973 8.125 3.75 8.54473 3.75 9.0625C3.75 9.58027 4.16973 10 4.6875 10ZM11.25 9.0625C11.25 9.58027 10.8303 10 10.3125 10C9.79473 10 9.375 9.58027 9.375 9.0625C9.375 8.54473 9.79473 8.125 10.3125 8.125C10.8303 8.125 11.25 8.54473 11.25 9.0625Z" fill="currentColor"/>
</svg>
