<svg width="18" height="18" viewBox="0 0 18 18" fill="none" xmlns="http://www.w3.org/2000/svg">
<path d="M13.6641 1.5H4.52344C3.68326 1.5 3 2.17275 3 3V15.75C3 15.9489 3.08025 16.1397 3.2231 16.2803C3.36595 16.421 3.5597 16.5 3.76172 16.5H14.4258C14.6278 16.5 14.8215 16.421 14.9644 16.2803C15.1072 16.1397 15.1875 15.9489 15.1875 15.75V3C15.1875 2.17275 14.5042 1.5 13.6641 1.5ZM14.0854 15.383H4.06965V2.55319H14.0854V15.383Z" fill="white"/>
<path d="M5.98205 4.46808H8.2672V5.96809H5.98205V4.46808ZM9.79064 4.46808H12.0758V5.96809H9.79064V4.46808ZM5.98205 7.46809H8.2672V8.96808H5.98205V7.46809ZM9.79064 7.49133H12.0758V8.96808H9.79064V7.49133ZM5.98205 10.4681H8.2672V11.9681H5.98205V10.4681ZM9.79064 10.4681H12.0758V11.9681H9.79064V10.4681Z" fill="white"/>
</svg>
