<?xml version="1.0" encoding="UTF-8"?>
<svg width="24px" height="24px" viewBox="0 0 24 24" version="1.1" xmlns="http://www.w3.org/2000/svg" xmlns:xlink="http://www.w3.org/1999/xlink">
    <!-- Generator: Sketch 51.3 (57544) - http://www.bohemiancoding.com/sketch -->
    <title>Components / Icons / 360 / Icon_cardboard Copy</title>
    <desc>Created with Sketch.</desc>
    <defs>
        <path d="M8.20476291,20 L3,20 C2.44771525,20 2,19.5522847 2,19 L2,6 C2,5.44771525 2.44771525,5 3,5 L21,5 C21.5522847,5 22,5.44771525 22,6 L22,19 C22,19.5522847 21.5522847,20 21,20 L15.7348128,20 C15.3861877,20 15.0627267,19.8184373 14.8811523,19.5208298 L12.8448342,16.1832247 C12.5571878,15.711761 11.9418075,15.5627476 11.4703438,15.850394 C11.3371713,15.9316443 11.2248551,16.0429249 11.1423746,16.175339 L9.053562,19.5287155 C8.8709817,19.8218297 8.55009096,20 8.20476291,20 Z M7.91026898,18 L10.3300186,14.4592299 C10.4742597,14.2481648 10.6576282,14.0667104 10.8701951,13.9246918 C11.7886392,13.3110679 13.0306257,13.5581736 13.6442495,14.4766177 L15.9982646,18 L20,18 L20,7 L4,7 L4,18 L7.91026898,18 Z M16.5,13 C15.6715729,13 15,12.3284271 15,11.5 C15,10.6715729 15.6715729,10 16.5,10 C17.3284271,10 18,10.6715729 18,11.5 C18,12.3284271 17.3284271,13 16.5,13 Z M7.5,13 C6.67157288,13 6,12.3284271 6,11.5 C6,10.6715729 6.67157288,10 7.5,10 C8.32842712,10 9,10.6715729 9,11.5 C9,12.3284271 8.32842712,13 7.5,13 Z" id="path-1"></path>
    </defs>
    <g id="Components-/-Icons-/-360-/-Icon_cardboard-Copy" stroke="none" stroke-width="1" fill="none" fill-rule="evenodd">
        <mask id="mask-2" fill="white">
            <use xlink:href="#path-1"></use>
        </mask>
        <use id="Mask" fill="#FFFFFF" xlink:href="#path-1"></use>
    </g>
</svg>