<svg xmlns="http://www.w3.org/2000/svg" width="24" height="24" viewBox="0 0 24 24">
    <path fill="#ED6B6A" fill-rule="nonzero" d="M12.129 1c2.434 0 4.809.681 6.685 1.919l.49.323-.674 9.125c.47-.1.926-.21 1.368-.331l.53 1.928c-.692.19-1.417.355-2.166.494l1.486 8.367-1.969.35-1.495-8.417c-.37.044-.743.082-1.12.114V21h-2v-6.015a36.519 36.519 0 0 1-2 .002V21h-2l-.001-6.121a33.418 33.418 0 0 1-1.329-.137l-1.69 8.454-1.961-.393 1.673-8.37c-.676-.129-1.33-.28-1.956-.45l.527-1.93c.44.12.894.23 1.36.327l-.664-9.327.516-.317C7.583 1.6 9.793 1 12.129 1zM7.306 4.144l.611 8.58c1.377.182 2.83.276 4.314.276 1.5 0 2.972-.097 4.37-.285l.62-8.427c-2.846-1.615-6.996-1.675-9.915-.144z"/>
</svg>
