<svg width="162" height="32" viewBox="0 0 162 32" fill="none" xmlns="http://www.w3.org/2000/svg">
<g clip-path="url(#clip0_672_5462)">
<path d="M16.8977 0.901432V13.6468C16.8977 14.1504 16.4876 14.5504 15.9959 14.5504H14.1924C13.6906 14.5504 13.2906 14.14 13.2906 13.6468V4.98802C13.2906 4.34143 12.6347 3.89908 12.0403 4.14567L0.563256 8.87037C0.223835 9.01437 0 9.34284 0 9.71272V30.541C0 31.0445 0.410058 31.4445 0.90176 31.4445H12.3779C12.8797 31.4445 13.2796 31.0332 13.2796 30.541V22.5814C13.2796 22.0779 13.6897 21.6779 14.1814 21.6779H15.9849C16.4867 21.6779 16.8867 22.0892 16.8867 22.5814V30.541C16.8867 31.0445 17.2967 31.4445 17.7884 31.4445H29.2646C29.7663 31.4445 30.1663 31.0332 30.1663 30.541V5.63555C30.1663 5.26567 29.9406 4.9372 29.6031 4.7932L18.1269 0.0694319C17.5536 -0.177156 16.8977 0.264255 16.8977 0.901432Z" fill="#3ECFAF"/>
<path d="M61.3525 27.4805V30.6748C61.3525 31.0758 61.025 31.4042 60.6251 31.4042H46.5859C46.1859 31.4042 45.8584 31.0748 45.8584 30.6748V8.33694C45.8584 7.93599 46.1868 7.60752 46.5859 7.60752H50.1525C50.5525 7.60752 50.88 7.93694 50.88 8.33694V26.7407H60.626C61.0259 26.7501 61.3534 27.0701 61.3534 27.4805H61.3525ZM80.7858 27.6969V30.7576C80.7858 31.1172 80.4987 31.4052 80.14 31.4052H78.408C76.5017 31.4052 75.467 30.7689 75.1606 29.2894C75.1521 29.2571 75.1349 29.2279 75.111 29.2051C75.0871 29.1823 75.0575 29.1669 75.0255 29.1605C74.9935 29.1541 74.9604 29.1571 74.9299 29.1691C74.8995 29.181 74.8729 29.2015 74.8533 29.2282C73.9313 30.7793 72.025 31.7751 69.4225 31.7751C65.621 31.7751 63.212 29.6696 63.212 26.4038C63.212 23.0767 65.7228 21.0325 70.5389 21.0325H74.4836V20.5176C74.4836 18.6165 73.5295 17.7346 71.5324 17.7346C70.0656 17.7301 68.6451 18.2616 67.5254 19.2339C67.2502 19.4598 66.8594 19.4692 66.6136 19.2132L64.6871 17.1896C64.4514 16.9431 64.4413 16.5431 64.6779 16.3068C66.3686 14.6127 68.962 13.5962 71.9021 13.5962C76.5549 13.5962 79.1272 16.112 79.1272 20.3228V26.9468C79.1272 27.5115 79.3107 27.6969 79.773 27.6969H80.7876H80.7858ZM74.4744 24.6362V24.0922H71.0215C68.8794 24.0922 67.9667 24.7699 67.9667 26.1346C67.9667 27.4598 68.8473 28.2089 70.5811 28.2089C72.9479 28.2089 74.4753 26.7812 74.4753 24.6353L74.4744 24.6362ZM104.015 8.33788V30.6823C104.015 31.0833 103.688 31.4118 103.288 31.4118H99.7521C99.3521 31.4118 99.0246 31.0823 99.0246 30.6823V21.5529H89.2383C88.8383 21.5529 88.5108 21.8823 88.5108 22.2823V30.6833C88.5108 31.0842 88.1824 31.4127 87.7834 31.4127H84.2167C83.8167 31.4127 83.4892 31.0833 83.4892 30.6833V8.33694C83.4892 7.93599 83.8176 7.60752 84.2167 7.60752H87.7834C88.1833 7.60752 88.5108 7.93694 88.5108 8.33694V16.9223H98.299C98.6981 16.9223 99.0265 16.5929 99.0265 16.1929V8.33694C99.0265 7.93599 99.354 7.60752 99.7539 7.60752H103.289C103.384 7.6059 103.478 7.62354 103.566 7.65941C103.654 7.69529 103.734 7.74868 103.801 7.81652C103.869 7.88435 103.923 7.96527 103.96 8.0546C103.997 8.14393 104.016 8.23989 104.017 8.33694L104.015 8.33788ZM143.19 14.7256V30.7473C143.187 30.9232 143.117 31.0909 142.994 31.2138C142.871 31.3368 142.706 31.4052 142.535 31.4042H139.141C138.774 31.4042 138.485 31.1068 138.485 30.7473V28.8565C137.531 30.6946 135.461 31.8871 132.92 31.8871C129.292 31.8871 127.253 29.5454 127.253 25.4268V14.7256C127.253 14.3661 127.55 14.0687 127.909 14.0687H131.413C131.78 14.0687 132.069 14.3661 132.069 14.7256V24.1638C132.069 26.4038 132.786 27.4918 134.784 27.4918C136.988 27.4918 138.38 26.1976 138.38 23.856V14.7266C138.38 14.3671 138.677 14.0696 139.036 14.0696H142.54C142.909 14.0696 143.195 14.3671 143.195 14.7266L143.19 14.7256ZM146.309 28.3021L147.835 26.2381C148.071 25.92 148.523 25.8475 148.83 26.0941C150.203 27.1831 152.109 27.8711 153.994 27.8711C155.695 27.8711 156.609 27.3063 156.609 26.4122C156.609 25.6621 155.994 25.1887 154.538 24.8499L151.658 24.1722C148.031 23.2894 146.606 21.584 146.606 19.2122C146.606 15.9153 149.321 13.6047 153.903 13.6047C156.648 13.6047 159.067 14.4367 160.665 15.792C160.953 16.0386 161.014 16.4508 160.788 16.768L159.231 18.8951C159.006 19.2028 158.575 19.2649 158.258 19.0494C156.783 18.0734 155.286 17.6527 153.842 17.6527C152.191 17.6527 151.402 18.1967 151.402 19.0494C151.402 19.6659 151.914 20.1073 153.441 20.4461L156.423 21.1548C160.121 22.0376 161.443 23.7431 161.443 26.1562C161.443 29.6574 158.698 31.8974 153.983 31.8974C150.848 31.8974 148.112 30.912 146.39 29.2376C146.261 29.1229 146.18 28.9616 146.165 28.7874C146.15 28.6132 146.201 28.4397 146.307 28.3031L146.309 28.3021ZM124.767 27.6969V30.7576C124.767 31.1172 124.48 31.4052 124.122 31.4052H122.39C120.483 31.4052 119.449 30.7689 119.142 29.2894C119.134 29.2571 119.117 29.2279 119.093 29.2051C119.069 29.1823 119.039 29.1669 119.007 29.1605C118.975 29.1541 118.942 29.1571 118.912 29.1691C118.881 29.181 118.855 29.2015 118.835 29.2282C117.912 30.7793 116.006 31.7751 113.404 31.7751C109.603 31.7751 107.194 29.6696 107.194 26.4038C107.194 23.0767 109.704 21.0325 114.522 21.0325H118.466V20.5176C118.466 18.6165 117.512 17.7346 115.515 17.7346C114.048 17.7301 112.628 18.2616 111.508 19.2339C111.233 19.4598 110.842 19.4692 110.596 19.2132L108.67 17.1896C108.434 16.9431 108.424 16.5431 108.661 16.3068C110.351 14.6127 112.945 13.5962 115.885 13.5962C120.538 13.5962 123.11 16.112 123.11 20.3228V26.9468C123.11 27.5115 123.293 27.6969 123.756 27.6969H124.77H124.767ZM118.454 24.6362V24.0922H114.99C112.849 24.0922 111.937 24.7699 111.937 26.1346C111.937 27.4598 112.818 28.2089 114.55 28.2089C116.928 28.2089 118.454 26.7812 118.454 24.6353V24.6362Z" fill="#012D26"/>
</g>
<defs>
<clipPath id="clip0_672_5462">
<rect width="161.455" height="32" fill="white"/>
</clipPath>
</defs>
</svg>
