<svg width="19" height="18" viewBox="0 0 19 18" fill="none" xmlns="http://www.w3.org/2000/svg">
<path d="M7.19169 7.11457L4.00102 10.3052L2.84077 9.145L9.80225 2.18353L10.9625 3.34377L8.642 5.66426L10.3824 7.40463L11.5426 6.24439L10.9625 5.66426L12.1227 4.50402L16.4737 8.85494L15.3134 10.0152L12.7029 7.40463L11.5426 8.56488L14.1532 11.1754L13.283 12.0456L14.4432 13.2059L18.087 9.56205C18.4776 9.17152 18.4776 8.53836 18.087 8.14783L10.5094 0.570145C10.1188 0.17962 9.48566 0.17962 9.09514 0.570144L1.22739 8.43789C0.836866 8.82842 0.836865 9.46158 1.22739 9.85211L8.80508 17.4298C9.1956 17.8203 9.82877 17.8203 10.2193 17.4298L13.283 14.3661L12.1227 13.2059L9.51218 15.8164L8.642 14.9462L11.2526 12.3357L9.22212 10.3052L8.06188 11.4655L8.93206 12.3357L7.48176 13.786L5.16126 11.4655L6.61157 10.0152L7.19169 10.5953L8.35194 9.43506L7.77182 8.85494L8.35194 8.27482" fill="#3948FF"/>
</svg>
