<svg width="24" height="16" viewBox="0 0 24 16" fill="none" xmlns="http://www.w3.org/2000/svg">
<path d="M15.8571 13.4506C16.1981 13.4506 16.5252 13.5756 16.7663 13.7982C17.0074 14.0207 17.1429 14.3226 17.1429 14.6374C17.1429 14.9521 17.0074 15.254 16.7663 15.4766C16.5252 15.6991 16.1981 15.8242 15.8571 15.8242H8.14286C7.80186 15.8242 7.47484 15.6991 7.23372 15.4766C6.9926 15.254 6.85714 14.9521 6.85714 14.6374C6.85714 14.3226 6.9926 14.0207 7.23372 13.7982C7.47484 13.5756 7.80186 13.4506 8.14286 13.4506H15.8571ZM19.2857 6.72528C19.6267 6.72528 19.9537 6.85031 20.1949 7.07289C20.436 7.29546 20.5714 7.59733 20.5714 7.91209C20.5714 8.22685 20.436 8.52872 20.1949 8.75129C19.9537 8.97386 19.6267 9.0989 19.2857 9.0989H4.71429C4.37329 9.0989 4.04627 8.97386 3.80515 8.75129C3.56403 8.52872 3.42857 8.22685 3.42857 7.91209C3.42857 7.59733 3.56403 7.29546 3.80515 7.07289C4.04627 6.85031 4.37329 6.72528 4.71429 6.72528H19.2857ZM22.7143 0C23.0553 0 23.3823 0.125039 23.6234 0.347609C23.8645 0.57018 24 0.872051 24 1.18681C24 1.50158 23.8645 1.80345 23.6234 2.02602C23.3823 2.24859 23.0553 2.37363 22.7143 2.37363H1.28571C0.944722 2.37363 0.617695 2.24859 0.376577 2.02602C0.135459 1.80345 0 1.50158 0 1.18681C0 0.872051 0.135459 0.57018 0.376577 0.347609C0.617695 0.125039 0.944722 0 1.28571 0H22.7143Z" fill="#FCFCFC"/>
</svg>
