<svg width="30" height="30" viewBox="0 0 30 30" fill="none" xmlns="http://www.w3.org/2000/svg">
<rect x="0.5" y="0.500366" width="29" height="29" rx="14.5" fill="#1D1C1B" stroke="white"/>
<path d="M19.7722 12.0245L19.7722 14.464L14.9082 14.4534V15.9595L19.7722 15.9489L19.7722 18.3884L22.9541 15.2064L19.7722 12.0245ZM11.7262 10.3425L14.1657 10.3425L14.1551 14.464H15.6613L15.6507 10.3425L18.0902 10.3425L14.9082 7.16049L11.7262 10.3425ZM10.0442 18.3884L10.0442 15.9489L14.9082 15.9595V14.4534L10.0442 14.464L10.0442 12.0245L6.86226 15.2064L10.0442 18.3884ZM18.0902 20.0704L15.6507 20.0704L15.6613 15.9595H14.1551L14.1657 20.0704L11.7262 20.0704L14.9082 23.2524L18.0902 20.0704Z" fill="white"/>
</svg>
