<svg width="26" height="27" viewBox="0 0 26 27" fill="none" xmlns="http://www.w3.org/2000/svg">
<path d="M22.0586 22.8616C20.7456 24.1746 19.2659 25.155 17.6196 25.8028C15.9732 26.4505 14.3017 26.7747 12.6049 26.7754C10.9067 26.7747 9.23519 26.4505 7.59025 25.8028C5.94531 25.155 4.46564 24.1746 3.15123 22.8616C2.85361 22.564 2.7048 22.2135 2.7048 21.8102C2.7048 21.4068 2.85361 21.057 3.15123 20.7608C3.44884 20.4632 3.79933 20.3144 4.20268 20.3144C4.60604 20.3144 4.95583 20.4632 5.25204 20.7608C7.30034 22.8091 9.75164 23.8333 12.606 23.8333C15.4603 23.8333 17.9109 22.8091 19.9578 20.7608C22.0061 18.7125 23.0302 16.2612 23.0302 13.4069C23.0302 10.5526 22.0061 8.10199 19.9578 6.05509C17.9095 4.0068 15.4582 2.98265 12.6038 2.98265C9.74954 2.98265 7.29894 4.0068 5.25204 6.05509L5.09448 6.21265L6.88017 6.21265C7.30034 6.21265 7.64627 6.35691 7.91798 6.64542C8.18968 6.93393 8.33394 7.27987 8.35075 7.68323C8.35075 8.10339 8.21104 8.46228 7.93163 8.75989C7.65223 9.05751 7.30174 9.20632 6.88017 9.20632H1.47057C1.05041 9.20632 0.700272 9.06626 0.420163 8.78615C0.140054 8.50605 4.0696e-07 8.15591 4.0696e-07 7.73575L0 2.32614C0 1.90598 0.148808 1.55549 0.446424 1.27468C0.74404 0.993875 1.10293 0.854171 1.52309 0.855572C1.92575 0.873078 2.27168 1.01733 2.5609 1.28834C2.85011 1.55935 2.99436 1.90528 2.99366 2.32614L2.99366 4.11184L3.15123 3.95428C4.46424 2.64127 5.94391 1.66088 7.59025 1.01313C9.23659 0.365381 10.9085 0.0415039 12.606 0.0415039C14.3034 0.0415039 15.9753 0.365381 17.6217 1.01313C19.268 1.66088 20.747 2.64127 22.0586 3.95428C23.3716 5.26729 24.352 6.74696 24.9997 8.3933C25.6475 10.0396 25.9717 11.7112 25.9724 13.408C25.9717 15.1061 25.6478 16.778 25.0008 18.4237C24.3537 20.0693 23.373 21.5486 22.0586 22.8616Z" fill="white"/>
<path d="M11.2534 18.3334L17.7534 14.1667C18.0645 13.9667 18.2201 13.6889 18.2201 13.3334C18.2201 12.9778 18.0645 12.7001 17.7534 12.5001L11.2534 8.33339C10.9201 8.11117 10.581 8.09428 10.2361 8.28272C9.89118 8.47117 9.71918 8.76583 9.72007 9.16672V17.5001C9.72007 17.9001 9.89251 18.1947 10.2374 18.3841C10.5823 18.5734 10.921 18.5565 11.2534 18.3334Z" fill="white"/>
</svg>
