<svg width="26" height="27" viewBox="0 0 26 27" fill="none" xmlns="http://www.w3.org/2000/svg">
<path d="M22.0586 22.8201C20.7456 24.1331 19.2659 25.1135 17.6196 25.7613C15.9732 26.409 14.3017 26.7332 12.6049 26.7339C10.9067 26.7332 9.23519 26.409 7.59025 25.7613C5.94531 25.1135 4.46564 24.1331 3.15123 22.8201C2.85361 22.5225 2.7048 22.172 2.7048 21.7687C2.7048 21.3653 2.85361 21.0155 3.15123 20.7193C3.44884 20.4217 3.79933 20.2729 4.20268 20.2729C4.60604 20.2729 4.95583 20.4217 5.25204 20.7193C7.30034 22.7676 9.75164 23.7917 12.606 23.7917C15.4603 23.7917 17.9109 22.7676 19.9578 20.7193C22.0061 18.671 23.0302 16.2197 23.0302 13.3654C23.0302 10.5111 22.0061 8.06048 19.9578 6.01359C17.9095 3.96529 15.4582 2.94114 12.6038 2.94114C9.74954 2.94114 7.29894 3.96529 5.25204 6.01359L5.09448 6.17115L6.88017 6.17115C7.30034 6.17115 7.64627 6.31541 7.91798 6.60392C8.18968 6.89243 8.33394 7.23836 8.35075 7.64172C8.35075 8.06188 8.21104 8.42077 7.93163 8.71839C7.65223 9.01601 7.30174 9.16481 6.88017 9.16481H1.47057C1.05041 9.16481 0.700272 9.02476 0.420163 8.74465C0.140054 8.46454 4.0696e-07 8.11441 4.0696e-07 7.69424L0 2.28464C0 1.86448 0.148808 1.51399 0.446424 1.23318C0.74404 0.952371 1.10293 0.812667 1.52309 0.814068C1.92575 0.831575 2.27168 0.975831 2.5609 1.24684C2.85011 1.51784 2.99436 1.86378 2.99366 2.28464L2.99366 4.07033L3.15123 3.91277C4.46424 2.59976 5.94391 1.61938 7.59025 0.971629C9.23659 0.323877 10.9085 0 12.606 0C14.3034 0 15.9753 0.323877 17.6217 0.971628C19.268 1.61938 20.747 2.59976 22.0586 3.91277C23.3716 5.22578 24.352 6.70546 24.9997 8.3518C25.6475 9.99814 25.9717 11.6697 25.9724 13.3664C25.9717 15.0646 25.6478 16.7365 25.0008 18.3821C24.3537 20.0278 23.373 21.5071 22.0586 22.8201Z" fill="white"/>
<path d="M11.2534 18.2919L17.7534 14.1252C18.0645 13.9252 18.2201 13.6474 18.2201 13.2919C18.2201 12.9363 18.0645 12.6586 17.7534 12.4586L11.2534 8.29189C10.9201 8.06966 10.581 8.05277 10.2361 8.24122C9.89118 8.42966 9.71918 8.72433 9.72007 9.12522V17.4586C9.72007 17.8586 9.89251 18.1532 10.2374 18.3426C10.5823 18.5319 10.921 18.515 11.2534 18.2919Z" fill="white"/>
</svg>
