<svg width="19" height="18" viewBox="0 0 19 18" fill="none" xmlns="http://www.w3.org/2000/svg">
<path d="M2.75 3C2.75 2.80109 2.82902 2.61032 2.96967 2.46967C3.11032 2.32902 3.30109 2.25 3.5 2.25C3.69891 2.25 3.88968 2.32902 4.03033 2.46967C4.17098 2.61032 4.25 2.80109 4.25 3H16.25C16.4489 3 16.6397 3.07902 16.7803 3.21967C16.921 3.36032 17 3.55109 17 3.75C17 3.94891 16.921 4.13968 16.7803 4.28033C16.6397 4.42098 16.4489 4.5 16.25 4.5H4.25V16.125C4.25 16.2245 4.21049 16.3198 4.14017 16.3902C4.06984 16.4605 3.97446 16.5 3.875 16.5H3.125C3.02554 16.5 2.93016 16.4605 2.85984 16.3902C2.78951 16.3198 2.75 16.2245 2.75 16.125V3Z" fill="black"/>
<path d="M5 5.8125C5 5.66332 5.05926 5.52024 5.16475 5.41475C5.27024 5.30926 5.41332 5.25 5.5625 5.25H15.6875C15.8367 5.25 15.9798 5.30926 16.0852 5.41475C16.1907 5.52024 16.25 5.66332 16.25 5.8125V12.1875C16.25 12.7345 16.0327 13.2591 15.6459 13.6459C15.2591 14.0327 14.7345 14.25 14.1875 14.25H7.0625C6.79165 14.25 6.52345 14.1967 6.27322 14.093C6.02298 13.9894 5.79561 13.8374 5.60409 13.6459C5.2173 13.2591 5 12.7345 5 12.1875V5.8125ZM8 9.345V11.625C8 11.7245 8.03951 11.8198 8.10984 11.8902C8.18016 11.9605 8.27554 12 8.375 12H9.6875C9.73723 12 9.78492 11.9802 9.82008 11.9451C9.85525 11.9099 9.875 11.8622 9.875 11.8125V10.875C9.875 10.7755 9.91451 10.6802 9.98484 10.6098C10.0552 10.5395 10.1505 10.5 10.25 10.5H11C11.0995 10.5 11.1948 10.5395 11.2652 10.6098C11.3355 10.6802 11.375 10.7755 11.375 10.875V11.8125C11.375 11.916 11.459 12 11.5625 12H12.875C12.9745 12 13.0698 11.9605 13.1402 11.8902C13.2105 11.8198 13.25 11.7245 13.25 11.625V9.345C13.25 9.23667 13.2265 9.12962 13.1812 9.03123C13.1359 8.93283 13.0698 8.84542 12.9875 8.775L10.8695 6.96C10.8016 6.9019 10.7151 6.86998 10.6258 6.86998C10.5364 6.86998 10.4499 6.9019 10.382 6.96L8.26175 8.775C8.17966 8.8454 8.11376 8.93273 8.06858 9.03098C8.02341 9.12924 8.00001 9.2361 8 9.34425V9.345Z" fill="black"/>
</svg>
