<svg width="50" height="50" viewBox="0 0 50 50" fill="none" xmlns="http://www.w3.org/2000/svg">
<path fill-rule="evenodd" clip-rule="evenodd" d="M25 1C38.2548 1 49 11.7452 49 25C49 38.2548 38.2548 49 25 49C11.7452 49 1 38.2548 1 25C1 11.7452 11.7452 1 25 1Z" fill="black" fill-opacity="0.3" stroke="white"/>
<path d="M34 16H16C14.89 16 14 16.89 14 18V30C14 31.1 14.89 32 16 32H21V34H29V32H34C35.1 32 35.99 31.1 35.99 30L36 18C36 16.89 35.1 16 34 16ZM34 30H16V18H34V30ZM29 24L22 28V20L29 24Z" fill="white"/>
</svg>
