<svg width="30" height="30" viewBox="0 0 30 30" fill="none" xmlns="http://www.w3.org/2000/svg">
<rect x="0.5" y="0.5" width="29" height="29" rx="14.5" fill="#1D1C1B" stroke="white"/>
<path fill-rule="evenodd" clip-rule="evenodd" d="M18.0363 17.282H17.378L17.1446 17.057C17.9613 16.107 18.453 14.8737 18.453 13.532C18.453 10.5403 16.028 8.11533 13.0363 8.11533C10.0446 8.11533 7.61963 10.5403 7.61963 13.532C7.61963 16.5237 10.0446 18.9487 13.0363 18.9487C14.378 18.9487 15.6113 18.457 16.5613 17.6403L16.7863 17.8737V18.532L20.953 22.6903L22.1946 21.4487L18.0363 17.282ZM13.0363 17.282C10.9613 17.282 9.2863 15.607 9.2863 13.532C9.2863 11.457 10.9613 9.78199 13.0363 9.78199C15.1113 9.78199 16.7863 11.457 16.7863 13.532C16.7863 15.607 15.1113 17.282 13.0363 17.282ZM15.1196 13.1153H10.953V13.9487H15.1196V13.1153Z" fill="white"/>
</svg>
