<svg width="30" height="30" viewBox="0 0 30 30" fill="none" xmlns="http://www.w3.org/2000/svg">
<rect x="0.5" y="0.500244" width="29" height="29" rx="14.5" fill="#1D1C1B" stroke="white"/>
<path fill-rule="evenodd" clip-rule="evenodd" d="M18.0363 16.8794H17.378L17.1446 16.6544C17.9613 15.7044 18.453 14.4711 18.453 13.1294C18.453 10.1377 16.028 7.71274 13.0363 7.71274C10.0446 7.71274 7.61963 10.1377 7.61963 13.1294C7.61963 16.1211 10.0446 18.5461 13.0363 18.5461C14.378 18.5461 15.6113 18.0544 16.5613 17.2377L16.7863 17.4711V18.1294L20.953 22.2877L22.1946 21.0461L18.0363 16.8794ZM13.0363 16.8794C10.9613 16.8794 9.2863 15.2044 9.2863 13.1294C9.2863 11.0544 10.9613 9.3794 13.0363 9.3794C15.1113 9.3794 16.7863 11.0544 16.7863 13.1294C16.7863 15.2044 15.1113 16.8794 13.0363 16.8794ZM12.6196 12.7127V11.0461H13.453V12.7127H15.1196V13.5461H13.453V15.2127H12.6196V13.5461H10.953V12.7127H12.6196Z" fill="white"/>
</svg>
