<svg id="Layer_1" data-name="Layer 1" xmlns="http://www.w3.org/2000/svg" viewBox="0 0 441.91 143.74"><defs><style>.cls-1{fill:#ed6b6a;}.cls-2{fill:#fff;}.cls-3{fill:#dadada;}.cls-4{fill:#56b0c0;}</style></defs><title>at Hum Logo</title><path d="M182.51,95.55a19.45,19.45,0,0,1-9.9-2.56,19.18,19.18,0,0,1-7.15-7.26,22.44,22.44,0,0,1-.22-20.89,19.77,19.77,0,0,1,7-7.51,18.77,18.77,0,0,1,10.22-2.85A18,18,0,0,1,191.91,57a18.89,18.89,0,0,1,6.86,7.13l.08-8.42h2.88l0,38.5h-2.88l-.09-8.34a18.64,18.64,0,0,1-6.85,7.1A18.29,18.29,0,0,1,182.51,95.55Zm0-2.73a16,16,0,0,0,14.35-8.51A19,19,0,0,0,199.1,75,19.24,19.24,0,0,0,197,66.06a16.4,16.4,0,0,0-5.9-6.46,15.86,15.86,0,0,0-8.63-2.4,16,16,0,0,0-14.35,8.52,19.1,19.1,0,0,0-2.24,9.3A19.61,19.61,0,0,0,168,84a15.93,15.93,0,0,0,14.56,8.85Z"/><path d="M232,95.51q-5.92,0-8.7-3.28T220.52,81.8l0-23.42h-9.14V55.74h9.14V42.58h3V55.73h14.76v2.65H223.55l0,22.06q0,6.81,2,9.58t6.78,2.76a14.87,14.87,0,0,0,4.09-.64,16.16,16.16,0,0,0,3.85-1.61l.57,2.65a14.15,14.15,0,0,1-4.09,1.68A18.93,18.93,0,0,1,232,95.51Z"/><path d="M256.87,40.16H268.2V62.74h27V40.16h11.33V96.43H295.23V72.07h-27V96.43H256.87Z"/><path d="M344.47,97.62q-11.78,0-18.29-6.52t-6.52-18.44V40.16H331V71.77q0,15.78,13.55,15.78t13.63-15.78V40.16H369.5v32.5q0,11.93-6.52,18.44T344.47,97.62Z"/><path d="M382.6,40.16h11.7l18.22,34.43,18.36-34.43h11V96.43H431.54V56.89L416.88,84.36h-9.25L393,56.89V96.43H382.6Z"/><circle class="cls-1" cx="71.87" cy="71.87" r="71.87"/><polygon points="65.56 84.59 78.24 84.59 78.24 100.11 102.21 100.11 41.42 43.63 41.42 100.11 65.56 100.11 65.56 84.59"/><rect class="cls-2" x="65.56" y="105.3" width="12.61" height="2.19"/><polygon class="cls-3" points="102.21 100.11 102.21 43.45 71.87 71.92 102.21 100.11"/><polygon class="cls-4" points="65.56 43.7 41.35 43.7 65.56 66.04 65.56 43.7"/><polygon class="cls-2" points="102.21 43.45 102.21 43.45 78.17 43.45 78.17 66 102.21 43.45"/></svg>