<svg width="32" height="32" viewBox="0 0 32 32" fill="none" xmlns="http://www.w3.org/2000/svg">
<path d="M17.6427 0.917357V13.8879C17.6427 14.4004 17.2146 14.8074 16.7012 14.8074H14.8182C14.2943 14.8074 13.8767 14.3898 13.8767 13.8879V5.07614C13.8767 4.41813 13.1918 3.96796 12.5712 4.21891L0.588091 9.02708C0.233704 9.17362 0 9.5079 0 9.88431V31.0805C0 31.5929 0.428138 32 0.941521 32H12.9236C13.4476 32 13.8652 31.5814 13.8652 31.0805V22.9804C13.8652 22.4679 14.2933 22.0609 14.8067 22.0609H16.6897C17.2136 22.0609 17.6313 22.4794 17.6313 22.9804V31.0805C17.6313 31.5929 18.0594 32 18.5728 32H30.5549C31.0788 32 31.4964 31.5814 31.4964 31.0805V5.73511C31.4964 5.35869 31.2608 5.02442 30.9083 4.87787L18.9262 0.0706585C18.3276 -0.180286 17.6427 0.268924 17.6427 0.917357Z" fill="#3ECFAF"/>
</svg>
