<svg width="68" height="68" viewBox="0 0 68 68" fill="none" xmlns="http://www.w3.org/2000/svg">
<path d="M34.1741 67.9954C52.853 67.9954 67.9953 52.8531 67.9953 34.1742C67.9953 15.4953 52.853 0.353027 34.1741 0.353027C15.4952 0.353027 0.352905 15.4953 0.352905 34.1742C0.352905 52.8531 15.4952 67.9954 34.1741 67.9954Z" fill="#ED6B6A"/>
<path d="M31.2046 40.1601H37.1717V47.4636H48.4517L19.8446 20.8848V47.4636H31.2046V40.1601Z" fill="black"/>
<path d="M37.1388 49.9058H31.2047V50.9363H37.1388V49.9058Z" fill="white"/>
<path d="M48.4517 47.4638V20.8003L34.1741 34.1979L48.4517 47.4638Z" fill="#DADADA"/>
<path d="M31.2047 20.9175H19.8118L31.2047 31.4304V20.9175Z" fill="#56B0C0"/>
<path d="M48.4517 20.8003H37.1388V31.4121L48.4517 20.8003Z" fill="white"/>
</svg>
